%TF.GenerationSoftware,KiCad,Pcbnew,8.0.7*%
%TF.CreationDate,2025-05-30T21:54:57+09:00*%
%TF.ProjectId,cool640zmk,636f6f6c-3634-4307-9a6d-6b2e6b696361,rev?*%
%TF.SameCoordinates,Original*%
%TF.FileFunction,Soldermask,Top*%
%TF.FilePolarity,Negative*%
%FSLAX46Y46*%
G04 Gerber Fmt 4.6, Leading zero omitted, Abs format (unit mm)*
G04 Created by KiCad (PCBNEW 8.0.7) date 2025-05-30 21:54:57*
%MOMM*%
%LPD*%
G01*
G04 APERTURE LIST*
%ADD10C,3.000000*%
%ADD11R,1.600000X1.600000*%
%ADD12C,1.600000*%
%ADD13R,2.000000X2.000000*%
%ADD14C,2.000000*%
%ADD15O,1.000000X1.300000*%
%ADD16O,2.750000X1.800000*%
%ADD17C,1.500000*%
%ADD18C,1.524000*%
G04 APERTURE END LIST*
D10*
%TO.C,SW40*%
X153000000Y-54700000D03*
X158000000Y-56900000D03*
%TD*%
%TO.C,SW28*%
X170000000Y-54700000D03*
X175000000Y-56900000D03*
%TD*%
%TO.C,SW12*%
X46000000Y-54700000D03*
X51000000Y-56900000D03*
%TD*%
%TO.C,SW14*%
X63000000Y-54700000D03*
X68000000Y-56900000D03*
%TD*%
%TO.C,SW2*%
X-5000000Y-20700000D03*
X0Y-22900000D03*
%TD*%
%TO.C,SW4*%
X-5000000Y-54700000D03*
X0Y-56900000D03*
%TD*%
%TO.C,SW10*%
X46000000Y-20700000D03*
X51000000Y-22900000D03*
%TD*%
D11*
%TO.C,J1*%
X74470000Y12240000D03*
D12*
X71950000Y12240000D03*
%TD*%
D13*
%TO.C,B1*%
X117920000Y9780000D03*
D14*
X162720000Y9780000D03*
%TD*%
D10*
%TO.C,SW11*%
X46000000Y-37700000D03*
X51000000Y-39900000D03*
%TD*%
%TO.C,SW5*%
X12000000Y-3700000D03*
X17000000Y-5900000D03*
%TD*%
%TO.C,SW38*%
X136000000Y-20700000D03*
X141000000Y-22900000D03*
%TD*%
%TO.C,SW31*%
X29000000Y-37700000D03*
X34000000Y-39900000D03*
%TD*%
%TO.C,SW30*%
X12000000Y-54700000D03*
X17000000Y-56900000D03*
%TD*%
%TO.C,SW16*%
X102000000Y-20700000D03*
X107000000Y-22900000D03*
%TD*%
D13*
%TO.C,B2*%
X12280000Y9560000D03*
D14*
X57080000Y9560000D03*
%TD*%
D10*
%TO.C,SW35*%
X102000000Y-37700000D03*
X107000000Y-39900000D03*
%TD*%
%TO.C,SW20*%
X119000000Y-54700000D03*
X124000000Y-56900000D03*
%TD*%
%TO.C,SW33*%
X63000000Y-3700000D03*
X68000000Y-5900000D03*
%TD*%
%TO.C,SW8*%
X29000000Y-20700000D03*
X34000000Y-22900000D03*
%TD*%
%TO.C,SW6*%
X12000000Y-20700000D03*
X17000000Y-22900000D03*
%TD*%
%TO.C,SW18*%
X119000000Y-20700000D03*
X124000000Y-22900000D03*
%TD*%
%TO.C,SW7*%
X29000000Y-3700000D03*
X34000000Y-5900000D03*
%TD*%
%TO.C,SW36*%
X102000000Y-54700000D03*
X107000000Y-56900000D03*
%TD*%
%TO.C,SW17*%
X119000000Y-3700000D03*
X124000000Y-5900000D03*
%TD*%
%TO.C,SW19*%
X119000000Y-37700000D03*
X124000000Y-39900000D03*
%TD*%
%TO.C,SW29*%
X12000000Y-37700000D03*
X17000000Y-39900000D03*
%TD*%
%TO.C,SW25*%
X170000000Y-3700000D03*
X175000000Y-5900000D03*
%TD*%
%TO.C,SW24*%
X153000000Y-20700000D03*
X158000000Y-22900000D03*
%TD*%
%TO.C,SW1*%
X-5000000Y-3700000D03*
X0Y-5900000D03*
%TD*%
%TO.C,SW26*%
X170000000Y-20700000D03*
X175000000Y-22900000D03*
%TD*%
%TO.C,SW23*%
X153000000Y-3700000D03*
X158000000Y-5900000D03*
%TD*%
%TO.C,SW3*%
X-5000000Y-37700000D03*
X0Y-39900000D03*
%TD*%
%TO.C,SW39*%
X153000000Y-37700000D03*
X158000000Y-39900000D03*
%TD*%
D14*
%TO.C,SW46*%
X84430000Y-8380000D03*
X90930000Y-8380000D03*
%TD*%
D10*
%TO.C,SW13*%
X63000000Y-37700000D03*
X68000000Y-39900000D03*
%TD*%
%TO.C,SW27*%
X170000000Y-37700000D03*
X175000000Y-39900000D03*
%TD*%
%TO.C,SW34*%
X63000000Y-20700000D03*
X68000000Y-22900000D03*
%TD*%
D15*
%TO.C,SW45*%
X181960000Y-3540000D03*
X181960000Y-6040000D03*
X181960000Y-8540000D03*
%TD*%
D10*
%TO.C,SW32*%
X29000000Y-54700000D03*
X34000000Y-56900000D03*
%TD*%
%TO.C,SW22*%
X136000000Y-54700000D03*
X141000000Y-56900000D03*
%TD*%
%TO.C,SW15*%
X102000000Y-3700000D03*
X107000000Y-5900000D03*
%TD*%
%TO.C,SW37*%
X136000000Y-3700000D03*
X141000000Y-5900000D03*
%TD*%
%TO.C,SW21*%
X136000000Y-37700000D03*
X141000000Y-39900000D03*
%TD*%
%TO.C,SW9*%
X46000000Y-3700000D03*
X51000000Y-5900000D03*
%TD*%
D16*
%TO.C,U1*%
X95590000Y13920000D03*
X95590000Y11380000D03*
X95590000Y8840000D03*
X95590000Y6300000D03*
X95590000Y3760000D03*
X95590000Y1220000D03*
X95590000Y-1320000D03*
X79350000Y-1320000D03*
X79350000Y1220000D03*
X79350000Y3760000D03*
X79350000Y6300000D03*
X79350000Y8840000D03*
X79350000Y11380000D03*
X79350000Y13920000D03*
D17*
X83634600Y-3012000D03*
X81755000Y-3012000D03*
X91915000Y6617000D03*
X91915000Y8522000D03*
D18*
X89350000Y12370000D03*
X85630000Y12310000D03*
%TD*%
M02*
