%TF.GenerationSoftware,KiCad,Pcbnew,8.0.7*%
%TF.CreationDate,2025-05-30T21:54:57+09:00*%
%TF.ProjectId,cool640zmk,636f6f6c-3634-4307-9a6d-6b2e6b696361,rev?*%
%TF.SameCoordinates,Original*%
%TF.FileFunction,Legend,Top*%
%TF.FilePolarity,Positive*%
%FSLAX46Y46*%
G04 Gerber Fmt 4.6, Leading zero omitted, Abs format (unit mm)*
G04 Created by KiCad (PCBNEW 8.0.7) date 2025-05-30 21:54:57*
%MOMM*%
%LPD*%
G01*
G04 APERTURE LIST*
%ADD10C,0.150000*%
%ADD11C,0.127000*%
%ADD12C,0.120000*%
%ADD13O,2.200000X1.500000*%
%ADD14C,2.000000*%
G04 APERTURE END LIST*
D10*
X72886666Y10285180D02*
X72886666Y9570895D01*
X72886666Y9570895D02*
X72839047Y9428038D01*
X72839047Y9428038D02*
X72743809Y9332800D01*
X72743809Y9332800D02*
X72600952Y9285180D01*
X72600952Y9285180D02*
X72505714Y9285180D01*
X73886666Y9285180D02*
X73315238Y9285180D01*
X73600952Y9285180D02*
X73600952Y10285180D01*
X73600952Y10285180D02*
X73505714Y10142323D01*
X73505714Y10142323D02*
X73410476Y10047085D01*
X73410476Y10047085D02*
X73315238Y9999466D01*
X117515238Y17848990D02*
X117658095Y17801371D01*
X117658095Y17801371D02*
X117705714Y17753752D01*
X117705714Y17753752D02*
X117753333Y17658514D01*
X117753333Y17658514D02*
X117753333Y17515657D01*
X117753333Y17515657D02*
X117705714Y17420419D01*
X117705714Y17420419D02*
X117658095Y17372800D01*
X117658095Y17372800D02*
X117562857Y17325180D01*
X117562857Y17325180D02*
X117181905Y17325180D01*
X117181905Y17325180D02*
X117181905Y18325180D01*
X117181905Y18325180D02*
X117515238Y18325180D01*
X117515238Y18325180D02*
X117610476Y18277561D01*
X117610476Y18277561D02*
X117658095Y18229942D01*
X117658095Y18229942D02*
X117705714Y18134704D01*
X117705714Y18134704D02*
X117705714Y18039466D01*
X117705714Y18039466D02*
X117658095Y17944228D01*
X117658095Y17944228D02*
X117610476Y17896609D01*
X117610476Y17896609D02*
X117515238Y17848990D01*
X117515238Y17848990D02*
X117181905Y17848990D01*
X118705714Y17325180D02*
X118134286Y17325180D01*
X118420000Y17325180D02*
X118420000Y18325180D01*
X118420000Y18325180D02*
X118324762Y18182323D01*
X118324762Y18182323D02*
X118229524Y18087085D01*
X118229524Y18087085D02*
X118134286Y18039466D01*
X113729048Y9706133D02*
X114490953Y9706133D01*
X114110000Y9325180D02*
X114110000Y10087085D01*
X165799048Y9706133D02*
X166560953Y9706133D01*
X11875238Y17628990D02*
X12018095Y17581371D01*
X12018095Y17581371D02*
X12065714Y17533752D01*
X12065714Y17533752D02*
X12113333Y17438514D01*
X12113333Y17438514D02*
X12113333Y17295657D01*
X12113333Y17295657D02*
X12065714Y17200419D01*
X12065714Y17200419D02*
X12018095Y17152800D01*
X12018095Y17152800D02*
X11922857Y17105180D01*
X11922857Y17105180D02*
X11541905Y17105180D01*
X11541905Y17105180D02*
X11541905Y18105180D01*
X11541905Y18105180D02*
X11875238Y18105180D01*
X11875238Y18105180D02*
X11970476Y18057561D01*
X11970476Y18057561D02*
X12018095Y18009942D01*
X12018095Y18009942D02*
X12065714Y17914704D01*
X12065714Y17914704D02*
X12065714Y17819466D01*
X12065714Y17819466D02*
X12018095Y17724228D01*
X12018095Y17724228D02*
X11970476Y17676609D01*
X11970476Y17676609D02*
X11875238Y17628990D01*
X11875238Y17628990D02*
X11541905Y17628990D01*
X12494286Y18009942D02*
X12541905Y18057561D01*
X12541905Y18057561D02*
X12637143Y18105180D01*
X12637143Y18105180D02*
X12875238Y18105180D01*
X12875238Y18105180D02*
X12970476Y18057561D01*
X12970476Y18057561D02*
X13018095Y18009942D01*
X13018095Y18009942D02*
X13065714Y17914704D01*
X13065714Y17914704D02*
X13065714Y17819466D01*
X13065714Y17819466D02*
X13018095Y17676609D01*
X13018095Y17676609D02*
X12446667Y17105180D01*
X12446667Y17105180D02*
X13065714Y17105180D01*
X8089048Y9486133D02*
X8850953Y9486133D01*
X8470000Y9105180D02*
X8470000Y9867085D01*
X60159048Y9486133D02*
X60920953Y9486133D01*
D11*
%TO.C,J1*%
X70680000Y13510000D02*
X75760000Y13510000D01*
X70680000Y10970000D02*
X70680000Y13510000D01*
X75760000Y13510000D02*
X75760000Y10970000D01*
X75760000Y10970000D02*
X70680000Y10970000D01*
D12*
%TO.C,B1*%
X115120000Y16380000D02*
X115120000Y3180000D01*
X115120000Y3180000D02*
X165320000Y3180000D01*
X115920000Y15780000D02*
X115920000Y3780000D01*
X115920000Y15780000D02*
X118920000Y15780000D01*
X115920000Y11780000D02*
X116920000Y11780000D01*
X115920000Y3780000D02*
X118920000Y3780000D01*
X116920000Y7780000D02*
X115920000Y7780000D01*
X120920000Y13780000D02*
X130920000Y13780000D01*
X120920000Y5780000D02*
X130920000Y5780000D01*
X132920000Y3780000D02*
X146920000Y3780000D01*
X146920000Y15780000D02*
X132920000Y15780000D01*
X157920000Y10780000D02*
X157920000Y8780000D01*
X158920000Y13780000D02*
X148920000Y13780000D01*
X158920000Y11780000D02*
X158920000Y7780000D01*
X158920000Y5780000D02*
X148920000Y5780000D01*
X159920000Y6780000D02*
X159920000Y12780000D01*
X160920000Y13780000D02*
X160920000Y5780000D01*
X163920000Y15780000D02*
X160920000Y15780000D01*
X163920000Y15780000D02*
X163920000Y3780000D01*
X163920000Y3780000D02*
X160920000Y3780000D01*
X165320000Y16380000D02*
X115120000Y16380000D01*
X165320000Y3180000D02*
X165320000Y16380000D01*
X118920000Y3780000D02*
G75*
G02*
X120920000Y5780000I2000000J0D01*
G01*
X120920000Y13780000D02*
G75*
G02*
X118920000Y15780000I0J2000000D01*
G01*
X130920000Y5780000D02*
G75*
G02*
X132920000Y3780000I0J-2000000D01*
G01*
X132920000Y15780000D02*
G75*
G02*
X130920000Y13780000I-2000000J0D01*
G01*
X146920000Y3780000D02*
G75*
G02*
X148920000Y5780000I2000000J0D01*
G01*
X148920000Y13780000D02*
G75*
G02*
X146920000Y15780000I0J2000000D01*
G01*
X158920000Y5780000D02*
G75*
G02*
X160920000Y3780000I0J-2000000D01*
G01*
X160920000Y15780000D02*
G75*
G02*
X158920000Y13780000I-2000000J0D01*
G01*
%TO.C,B2*%
X9480000Y16160000D02*
X9480000Y2960000D01*
X9480000Y2960000D02*
X59680000Y2960000D01*
X10280000Y15560000D02*
X10280000Y3560000D01*
X10280000Y15560000D02*
X13280000Y15560000D01*
X10280000Y11560000D02*
X11280000Y11560000D01*
X10280000Y3560000D02*
X13280000Y3560000D01*
X11280000Y7560000D02*
X10280000Y7560000D01*
X15280000Y13560000D02*
X25280000Y13560000D01*
X15280000Y5560000D02*
X25280000Y5560000D01*
X27280000Y3560000D02*
X41280000Y3560000D01*
X41280000Y15560000D02*
X27280000Y15560000D01*
X52280000Y10560000D02*
X52280000Y8560000D01*
X53280000Y13560000D02*
X43280000Y13560000D01*
X53280000Y11560000D02*
X53280000Y7560000D01*
X53280000Y5560000D02*
X43280000Y5560000D01*
X54280000Y6560000D02*
X54280000Y12560000D01*
X55280000Y13560000D02*
X55280000Y5560000D01*
X58280000Y15560000D02*
X55280000Y15560000D01*
X58280000Y15560000D02*
X58280000Y3560000D01*
X58280000Y3560000D02*
X55280000Y3560000D01*
X59680000Y16160000D02*
X9480000Y16160000D01*
X59680000Y2960000D02*
X59680000Y16160000D01*
X13280000Y3560000D02*
G75*
G02*
X15280000Y5560000I2000000J0D01*
G01*
X15280000Y13560000D02*
G75*
G02*
X13280000Y15560000I0J2000000D01*
G01*
X25280000Y5560000D02*
G75*
G02*
X27280000Y3560000I0J-2000000D01*
G01*
X27280000Y15560000D02*
G75*
G02*
X25280000Y13560000I-2000000J0D01*
G01*
X41280000Y3560000D02*
G75*
G02*
X43280000Y5560000I2000000J0D01*
G01*
X43280000Y13560000D02*
G75*
G02*
X41280000Y15560000I0J2000000D01*
G01*
X53280000Y5560000D02*
G75*
G02*
X55280000Y3560000I0J-2000000D01*
G01*
X55280000Y15560000D02*
G75*
G02*
X53280000Y13560000I-2000000J0D01*
G01*
D10*
%TO.C,SW45*%
X181010000Y-1540000D02*
X184510000Y-1540000D01*
X181010000Y-10540000D02*
X181010000Y-1540000D01*
X184510000Y-1540000D02*
X184510000Y-10540000D01*
X184510000Y-10540000D02*
X181010000Y-10540000D01*
%TD*%
D13*
%TO.C,SW40*%
X163550000Y-46000000D03*
%TD*%
%TO.C,SW28*%
X180550000Y-46000000D03*
%TD*%
%TO.C,SW12*%
X56550000Y-46000000D03*
%TD*%
%TO.C,SW14*%
X73550000Y-46000000D03*
%TD*%
%TO.C,SW2*%
X5550000Y-12000000D03*
%TD*%
%TO.C,SW4*%
X5550000Y-46000000D03*
%TD*%
%TO.C,SW10*%
X56550000Y-12000000D03*
%TD*%
%TO.C,SW11*%
X56550000Y-29000000D03*
%TD*%
%TO.C,SW5*%
X22550000Y5000000D03*
%TD*%
%TO.C,SW38*%
X146550000Y-12000000D03*
%TD*%
%TO.C,SW31*%
X39550000Y-29000000D03*
%TD*%
%TO.C,SW30*%
X22550000Y-46000000D03*
%TD*%
%TO.C,SW16*%
X112550000Y-12000000D03*
%TD*%
%TO.C,SW35*%
X112550000Y-29000000D03*
%TD*%
%TO.C,SW20*%
X129550000Y-46000000D03*
%TD*%
%TO.C,SW33*%
X73550000Y5000000D03*
%TD*%
%TO.C,SW8*%
X39550000Y-12000000D03*
%TD*%
%TO.C,SW6*%
X22550000Y-12000000D03*
%TD*%
%TO.C,SW18*%
X129550000Y-12000000D03*
%TD*%
%TO.C,SW7*%
X39550000Y5000000D03*
%TD*%
%TO.C,SW36*%
X112550000Y-46000000D03*
%TD*%
%TO.C,SW17*%
X129550000Y5000000D03*
%TD*%
%TO.C,SW19*%
X129550000Y-29000000D03*
%TD*%
%TO.C,SW29*%
X22550000Y-29000000D03*
%TD*%
%TO.C,SW25*%
X180550000Y5000000D03*
%TD*%
%TO.C,SW24*%
X163550000Y-12000000D03*
%TD*%
%TO.C,SW1*%
X5550000Y5000000D03*
%TD*%
%TO.C,SW26*%
X180550000Y-12000000D03*
%TD*%
%TO.C,SW23*%
X163550000Y5000000D03*
%TD*%
%TO.C,SW3*%
X5550000Y-29000000D03*
%TD*%
%TO.C,SW39*%
X163550000Y-29000000D03*
%TD*%
D14*
%TO.C,SW46*%
X84430000Y-8380000D03*
X90930000Y-8380000D03*
%TD*%
D13*
%TO.C,SW13*%
X73550000Y-29000000D03*
%TD*%
%TO.C,SW27*%
X180550000Y-29000000D03*
%TD*%
%TO.C,SW34*%
X73550000Y-12000000D03*
%TD*%
%TO.C,SW32*%
X39550000Y-46000000D03*
%TD*%
%TO.C,SW22*%
X146550000Y-46000000D03*
%TD*%
%TO.C,SW15*%
X112550000Y5000000D03*
%TD*%
%TO.C,SW37*%
X146550000Y5000000D03*
%TD*%
%TO.C,SW21*%
X146550000Y-29000000D03*
%TD*%
%TO.C,SW9*%
X56550000Y5000000D03*
%TD*%
M02*
