M48
; DRILL file {KiCad 8.0.7} date 2025-05-30T21:55:03+0900
; FORMAT={-:-/ absolute / metric / decimal}
; #@! TF.CreationDate,2025-05-30T21:55:03+09:00
; #@! TF.GenerationSoftware,Kicad,Pcbnew,8.0.7
; #@! TF.FileFunction,Plated,1,2,PTH
FMAT,2
METRIC
; #@! TA.AperFunction,Plated,PTH,ViaDrill
T1C0.300
; #@! TA.AperFunction,Plated,PTH,ComponentDrill
T2C0.500
; #@! TA.AperFunction,Plated,PTH,ComponentDrill
T3C0.762
; #@! TA.AperFunction,Plated,PTH,ComponentDrill
T4C0.800
; #@! TA.AperFunction,Plated,PTH,ComponentDrill
T5C0.813
; #@! TA.AperFunction,Plated,PTH,ComponentDrill
T6C0.900
; #@! TA.AperFunction,Plated,PTH,ComponentDrill
T7C1.000
; #@! TA.AperFunction,Plated,PTH,ComponentDrill
T8C1.020
; #@! TA.AperFunction,Plated,PTH,ComponentDrill
T9C1.300
%
G90
G05
T1
X-8.625Y-47.15
X-8.3Y6.33
X-7.76Y-27.72
X-7.68Y-10.5
X-7.64Y-44.72
X-7.5Y-60.76
X8.365Y-13.95
X8.455Y-47.18
X9.33Y-10.5
X9.39Y-61.36
X9.4Y-47.17
X9.45Y-27.72
X12.27Y15.54
X25.67Y3.81
X25.7Y-13.94
X26.24Y-27.01
X26.27Y-61.36
X37.46Y-13.08
X37.57Y-47.1
X42.695Y-13.91
X43.38Y-60.76
X43.54Y-10.48
X43.55Y-27.73
X43.57Y-44.59
X58.06Y-10.36
X59.165Y-47.94
X59.355Y-13.94
X59.7Y2.61
X60.22Y-61.96
X60.36Y-13.96
X61.91Y-26.89
X71.98Y16.15
X79.89Y-14.88
X81.72Y-60.7
X81.755Y-27.35
X82.43Y-44.59
X82.48Y-13.08
X93.88Y-10.36
X95.35Y-27.95
X98.305Y-47.64
X98.325Y-14.86
X99.2Y-27.35
X99.23Y-43.74
X99.23Y-47.0
X99.28Y-13.05
X99.38Y-60.56
X100.27Y13.84
X100.3Y-13.99
X115.265Y-13.99
X115.69Y3.81
X115.83Y-44.47
X116.04Y-27.95
X116.13Y-61.53
X116.23Y-10.77
X117.92Y13.29
X117.93Y16.13
X131.1Y11.48
X131.11Y-27.95
X132.165Y-48.03
X132.235Y-14.03
X133.27Y-62.16
X133.51Y-10.77
X133.54Y-13.73
X134.31Y-26.725
X134.31Y-60.56
X134.91Y-43.74
X149.65Y6.34
X149.7Y-48.04
X150.34Y-27.35
X150.42Y-60.56
X151.38Y-61.56
X161.45Y-12.9
X161.46Y-43.76
X162.83Y15.89
X166.68Y8.43
X166.87Y-61.56
X167.23Y-44.38
X167.28Y-27.93
X167.32Y-13.77
X168.31Y-13.15
X181.96Y13.22
X182.71Y7.45
T3
X85.63Y12.31
X89.35Y12.37
T5
X79.85Y13.92
X79.85Y11.38
X79.85Y8.84
X79.85Y6.3
X79.85Y3.76
X79.85Y1.22
X79.85Y-1.32
X95.09Y13.92
X95.09Y11.38
X95.09Y8.84
X95.09Y6.3
X95.09Y3.76
X95.09Y1.22
X95.09Y-1.32
T6
X71.95Y12.24
X74.47Y12.24
T7
X81.755Y-3.012
X83.635Y-3.012
X91.915Y8.522
X91.915Y6.617
T8
X12.28Y9.56
X57.08Y9.56
X117.92Y9.78
X162.72Y9.78
T9
X84.43Y-8.38
X90.93Y-8.38
T2
G00X181.96Y-3.39
M15
G01X181.96Y-3.69
M16
G05
G00X181.96Y-5.89
M15
G01X181.96Y-6.19
M16
G05
G00X181.96Y-8.39
M15
G01X181.96Y-8.69
M16
G05
T4
G00X5.65Y5.0
M15
G01X5.45Y5.0
M16
G05
G00X5.65Y-12.0
M15
G01X5.45Y-12.0
M16
G05
G00X5.65Y-29.0
M15
G01X5.45Y-29.0
M16
G05
G00X5.65Y-46.0
M15
G01X5.45Y-46.0
M16
G05
G00X22.65Y5.0
M15
G01X22.45Y5.0
M16
G05
G00X22.65Y-12.0
M15
G01X22.45Y-12.0
M16
G05
G00X22.65Y-29.0
M15
G01X22.45Y-29.0
M16
G05
G00X22.65Y-46.0
M15
G01X22.45Y-46.0
M16
G05
G00X39.65Y5.0
M15
G01X39.45Y5.0
M16
G05
G00X39.65Y-12.0
M15
G01X39.45Y-12.0
M16
G05
G00X39.65Y-29.0
M15
G01X39.45Y-29.0
M16
G05
G00X39.65Y-46.0
M15
G01X39.45Y-46.0
M16
G05
G00X56.65Y5.0
M15
G01X56.45Y5.0
M16
G05
G00X56.65Y-12.0
M15
G01X56.45Y-12.0
M16
G05
G00X56.65Y-29.0
M15
G01X56.45Y-29.0
M16
G05
G00X56.65Y-46.0
M15
G01X56.45Y-46.0
M16
G05
G00X73.65Y5.0
M15
G01X73.45Y5.0
M16
G05
G00X73.65Y-12.0
M15
G01X73.45Y-12.0
M16
G05
G00X73.65Y-29.0
M15
G01X73.45Y-29.0
M16
G05
G00X73.65Y-46.0
M15
G01X73.45Y-46.0
M16
G05
G00X112.65Y5.0
M15
G01X112.45Y5.0
M16
G05
G00X112.65Y-12.0
M15
G01X112.45Y-12.0
M16
G05
G00X112.65Y-29.0
M15
G01X112.45Y-29.0
M16
G05
G00X112.65Y-46.0
M15
G01X112.45Y-46.0
M16
G05
G00X129.65Y5.0
M15
G01X129.45Y5.0
M16
G05
G00X129.65Y-12.0
M15
G01X129.45Y-12.0
M16
G05
G00X129.65Y-29.0
M15
G01X129.45Y-29.0
M16
G05
G00X129.65Y-46.0
M15
G01X129.45Y-46.0
M16
G05
G00X146.65Y5.0
M15
G01X146.45Y5.0
M16
G05
G00X146.65Y-12.0
M15
G01X146.45Y-12.0
M16
G05
G00X146.65Y-29.0
M15
G01X146.45Y-29.0
M16
G05
G00X146.65Y-46.0
M15
G01X146.45Y-46.0
M16
G05
G00X163.65Y5.0
M15
G01X163.45Y5.0
M16
G05
G00X163.65Y-12.0
M15
G01X163.45Y-12.0
M16
G05
G00X163.65Y-29.0
M15
G01X163.45Y-29.0
M16
G05
G00X163.65Y-46.0
M15
G01X163.45Y-46.0
M16
G05
G00X180.65Y5.0
M15
G01X180.45Y5.0
M16
G05
G00X180.65Y-12.0
M15
G01X180.45Y-12.0
M16
G05
G00X180.65Y-29.0
M15
G01X180.45Y-29.0
M16
G05
G00X180.65Y-46.0
M15
G01X180.45Y-46.0
M16
G05
M30
