M48
; DRILL file {KiCad 8.0.7} date 2025-05-30T21:55:03+0900
; FORMAT={-:-/ absolute / metric / decimal}
; #@! TF.CreationDate,2025-05-30T21:55:03+09:00
; #@! TF.GenerationSoftware,Kicad,Pcbnew,8.0.7
; #@! TF.FileFunction,NonPlated,1,2,NPTH
FMAT,2
METRIC
; #@! TA.AperFunction,NonPlated,NPTH,ComponentDrill
T1C1.900
; #@! TA.AperFunction,NonPlated,NPTH,ComponentDrill
T2C3.000
; #@! TA.AperFunction,NonPlated,NPTH,ComponentDrill
T3C5.000
%
G90
G05
T1
X-5.5Y0.0
X-5.5Y-17.0
X-5.5Y-34.0
X-5.5Y-51.0
X5.5Y0.0
X5.5Y-17.0
X5.5Y-34.0
X5.5Y-51.0
X11.5Y0.0
X11.5Y-17.0
X11.5Y-34.0
X11.5Y-51.0
X22.5Y0.0
X22.5Y-17.0
X22.5Y-34.0
X22.5Y-51.0
X28.5Y0.0
X28.5Y-17.0
X28.5Y-34.0
X28.5Y-51.0
X39.5Y0.0
X39.5Y-17.0
X39.5Y-34.0
X39.5Y-51.0
X45.5Y0.0
X45.5Y-17.0
X45.5Y-34.0
X45.5Y-51.0
X56.5Y0.0
X56.5Y-17.0
X56.5Y-34.0
X56.5Y-51.0
X62.5Y0.0
X62.5Y-17.0
X62.5Y-34.0
X62.5Y-51.0
X73.5Y0.0
X73.5Y-17.0
X73.5Y-34.0
X73.5Y-51.0
X101.5Y0.0
X101.5Y-17.0
X101.5Y-34.0
X101.5Y-51.0
X112.5Y0.0
X112.5Y-17.0
X112.5Y-34.0
X112.5Y-51.0
X118.5Y0.0
X118.5Y-17.0
X118.5Y-34.0
X118.5Y-51.0
X129.5Y0.0
X129.5Y-17.0
X129.5Y-34.0
X129.5Y-51.0
X135.5Y0.0
X135.5Y-17.0
X135.5Y-34.0
X135.5Y-51.0
X146.5Y0.0
X146.5Y-17.0
X146.5Y-34.0
X146.5Y-51.0
X152.5Y0.0
X152.5Y-17.0
X152.5Y-34.0
X152.5Y-51.0
X163.5Y0.0
X163.5Y-17.0
X163.5Y-34.0
X163.5Y-51.0
X169.5Y0.0
X169.5Y-17.0
X169.5Y-34.0
X169.5Y-51.0
X180.5Y0.0
X180.5Y-17.0
X180.5Y-34.0
X180.5Y-51.0
T2
X-5.0Y-3.7
X-5.0Y-20.7
X-5.0Y-37.7
X-5.0Y-54.7
X0.0Y-5.9
X0.0Y-22.9
X0.0Y-39.9
X0.0Y-56.9
X12.0Y-3.7
X12.0Y-20.7
X12.0Y-37.7
X12.0Y-54.7
X17.0Y-5.9
X17.0Y-22.9
X17.0Y-39.9
X17.0Y-56.9
X29.0Y-3.7
X29.0Y-20.7
X29.0Y-37.7
X29.0Y-54.7
X34.0Y-5.9
X34.0Y-22.9
X34.0Y-39.9
X34.0Y-56.9
X46.0Y-3.7
X46.0Y-20.7
X46.0Y-37.7
X46.0Y-54.7
X51.0Y-5.9
X51.0Y-22.9
X51.0Y-39.9
X51.0Y-56.9
X63.0Y-3.7
X63.0Y-20.7
X63.0Y-37.7
X63.0Y-54.7
X68.0Y-5.9
X68.0Y-22.9
X68.0Y-39.9
X68.0Y-56.9
X102.0Y-3.7
X102.0Y-20.7
X102.0Y-37.7
X102.0Y-54.7
X107.0Y-5.9
X107.0Y-22.9
X107.0Y-39.9
X107.0Y-56.9
X119.0Y-3.7
X119.0Y-20.7
X119.0Y-37.7
X119.0Y-54.7
X124.0Y-5.9
X124.0Y-22.9
X124.0Y-39.9
X124.0Y-56.9
X136.0Y-3.7
X136.0Y-20.7
X136.0Y-37.7
X136.0Y-54.7
X141.0Y-5.9
X141.0Y-22.9
X141.0Y-39.9
X141.0Y-56.9
X153.0Y-3.7
X153.0Y-20.7
X153.0Y-37.7
X153.0Y-54.7
X158.0Y-5.9
X158.0Y-22.9
X158.0Y-39.9
X158.0Y-56.9
X170.0Y-3.7
X170.0Y-20.7
X170.0Y-37.7
X170.0Y-54.7
X175.0Y-5.9
X175.0Y-22.9
X175.0Y-39.9
X175.0Y-56.9
T3
X0.0Y0.0
X0.0Y-17.0
X0.0Y-34.0
X0.0Y-51.0
X17.0Y0.0
X17.0Y-17.0
X17.0Y-34.0
X17.0Y-51.0
X34.0Y0.0
X34.0Y-17.0
X34.0Y-34.0
X34.0Y-51.0
X51.0Y0.0
X51.0Y-17.0
X51.0Y-34.0
X51.0Y-51.0
X68.0Y0.0
X68.0Y-17.0
X68.0Y-34.0
X68.0Y-51.0
X107.0Y0.0
X107.0Y-17.0
X107.0Y-34.0
X107.0Y-51.0
X124.0Y0.0
X124.0Y-17.0
X124.0Y-34.0
X124.0Y-51.0
X141.0Y0.0
X141.0Y-17.0
X141.0Y-34.0
X141.0Y-51.0
X158.0Y0.0
X158.0Y-17.0
X158.0Y-34.0
X158.0Y-51.0
X175.0Y0.0
X175.0Y-17.0
X175.0Y-34.0
X175.0Y-51.0
M30
