%TF.GenerationSoftware,KiCad,Pcbnew,8.0.7*%
%TF.CreationDate,2025-05-30T21:54:57+09:00*%
%TF.ProjectId,cool640zmk,636f6f6c-3634-4307-9a6d-6b2e6b696361,rev?*%
%TF.SameCoordinates,Original*%
%TF.FileFunction,Soldermask,Bot*%
%TF.FilePolarity,Negative*%
%FSLAX46Y46*%
G04 Gerber Fmt 4.6, Leading zero omitted, Abs format (unit mm)*
G04 Created by KiCad (PCBNEW 8.0.7) date 2025-05-30 21:54:57*
%MOMM*%
%LPD*%
G01*
G04 APERTURE LIST*
%ADD10C,3.000000*%
%ADD11O,2.200000X1.500000*%
%ADD12R,2.600000X2.600000*%
%ADD13R,1.300000X0.950000*%
%ADD14R,1.600000X1.600000*%
%ADD15C,1.600000*%
%ADD16R,2.000000X2.000000*%
%ADD17C,2.000000*%
%ADD18O,1.000000X1.300000*%
%ADD19O,2.750000X1.800000*%
%ADD20C,1.500000*%
%ADD21C,1.524000*%
G04 APERTURE END LIST*
D10*
%TO.C,SW40*%
X153000000Y-54700000D03*
X158000000Y-56900000D03*
D11*
X163550000Y-46000000D03*
D12*
X149700000Y-54700000D03*
X161300000Y-56900000D03*
%TD*%
D10*
%TO.C,SW28*%
X170000000Y-54700000D03*
X175000000Y-56900000D03*
D11*
X180550000Y-46000000D03*
D12*
X166700000Y-54700000D03*
X178300000Y-56900000D03*
%TD*%
D13*
%TO.C,D1*%
X-7675000Y-8480000D03*
X-4125000Y-8480000D03*
%TD*%
%TO.C,D4*%
X-7525000Y-59440000D03*
X-3975000Y-59440000D03*
%TD*%
%TO.C,D27*%
X167205000Y-42490000D03*
X170755000Y-42490000D03*
%TD*%
%TO.C,D28*%
X166935000Y-59300000D03*
X170485000Y-59300000D03*
%TD*%
D10*
%TO.C,SW12*%
X46000000Y-54700000D03*
X51000000Y-56900000D03*
D11*
X56550000Y-46000000D03*
D12*
X42700000Y-54700000D03*
X54300000Y-56900000D03*
%TD*%
D13*
%TO.C,D21*%
X133115000Y-42460000D03*
X136665000Y-42460000D03*
%TD*%
D10*
%TO.C,SW14*%
X63000000Y-54700000D03*
X68000000Y-56900000D03*
D11*
X73550000Y-46000000D03*
D12*
X59700000Y-54700000D03*
X71300000Y-56900000D03*
%TD*%
D13*
%TO.C,D9*%
X43645000Y-8440000D03*
X47195000Y-8440000D03*
%TD*%
D10*
%TO.C,SW2*%
X-5000000Y-20700000D03*
X0Y-22900000D03*
D11*
X5550000Y-12000000D03*
D12*
X-8300000Y-20700000D03*
X3300000Y-22900000D03*
%TD*%
D10*
%TO.C,SW4*%
X-5000000Y-54700000D03*
X0Y-56900000D03*
D11*
X5550000Y-46000000D03*
D12*
X-8300000Y-54700000D03*
X3300000Y-56900000D03*
%TD*%
D13*
%TO.C,D3*%
X-7675000Y-42490000D03*
X-4125000Y-42490000D03*
%TD*%
D10*
%TO.C,SW10*%
X46000000Y-20700000D03*
X51000000Y-22900000D03*
D11*
X56550000Y-12000000D03*
D12*
X42700000Y-20700000D03*
X54300000Y-22900000D03*
%TD*%
D13*
%TO.C,D30*%
X9395000Y-59300000D03*
X12945000Y-59300000D03*
%TD*%
D14*
%TO.C,J1*%
X74470000Y12240000D03*
D15*
X71950000Y12240000D03*
%TD*%
D16*
%TO.C,B1*%
X117920000Y9780000D03*
D17*
X162720000Y9780000D03*
%TD*%
D10*
%TO.C,SW11*%
X46000000Y-37700000D03*
X51000000Y-39900000D03*
D11*
X56550000Y-29000000D03*
D12*
X42700000Y-37700000D03*
X54300000Y-39900000D03*
%TD*%
D13*
%TO.C,D22*%
X133275000Y-59300000D03*
X136825000Y-59300000D03*
%TD*%
D10*
%TO.C,SW5*%
X12000000Y-3700000D03*
X17000000Y-5900000D03*
D11*
X22550000Y5000000D03*
D12*
X8700000Y-3700000D03*
X20300000Y-5900000D03*
%TD*%
D10*
%TO.C,SW38*%
X136000000Y-20700000D03*
X141000000Y-22900000D03*
D11*
X146550000Y-12000000D03*
D12*
X132700000Y-20700000D03*
X144300000Y-22900000D03*
%TD*%
D13*
%TO.C,D37*%
X133185000Y-8500000D03*
X136735000Y-8500000D03*
%TD*%
%TO.C,D2*%
X-7715000Y-25480000D03*
X-4165000Y-25480000D03*
%TD*%
D10*
%TO.C,SW31*%
X29000000Y-37700000D03*
X34000000Y-39900000D03*
D11*
X39550000Y-29000000D03*
D12*
X25700000Y-37700000D03*
X37300000Y-39900000D03*
%TD*%
D13*
%TO.C,D8*%
X26235000Y-25480000D03*
X29785000Y-25480000D03*
%TD*%
%TO.C,D25*%
X167395000Y-8500000D03*
X170945000Y-8500000D03*
%TD*%
%TO.C,D26*%
X167245000Y-25560000D03*
X170795000Y-25560000D03*
%TD*%
D10*
%TO.C,SW30*%
X12000000Y-54700000D03*
X17000000Y-56900000D03*
D11*
X22550000Y-46000000D03*
D12*
X8700000Y-54700000D03*
X20300000Y-56900000D03*
%TD*%
D13*
%TO.C,D6*%
X9415000Y-25510000D03*
X12965000Y-25510000D03*
%TD*%
D10*
%TO.C,SW16*%
X102000000Y-20700000D03*
X107000000Y-22900000D03*
D11*
X112550000Y-12000000D03*
D12*
X98700000Y-20700000D03*
X110300000Y-22900000D03*
%TD*%
D13*
%TO.C,D19*%
X115825000Y-42510000D03*
X119375000Y-42510000D03*
%TD*%
%TO.C,D24*%
X150355000Y-25510000D03*
X153905000Y-25510000D03*
%TD*%
D16*
%TO.C,B2*%
X12280000Y9560000D03*
D17*
X57080000Y9560000D03*
%TD*%
D13*
%TO.C,D31*%
X37555000Y-42610000D03*
X41105000Y-42610000D03*
%TD*%
D10*
%TO.C,SW35*%
X102000000Y-37700000D03*
X107000000Y-39900000D03*
D11*
X112550000Y-29000000D03*
D12*
X98700000Y-37700000D03*
X110300000Y-39900000D03*
%TD*%
D10*
%TO.C,SW20*%
X119000000Y-54700000D03*
X124000000Y-56900000D03*
D11*
X129550000Y-46000000D03*
D12*
X115700000Y-54700000D03*
X127300000Y-56900000D03*
%TD*%
D13*
%TO.C,D18*%
X116065000Y-25500000D03*
X119615000Y-25500000D03*
%TD*%
%TO.C,D36*%
X99405000Y-59330000D03*
X102955000Y-59330000D03*
%TD*%
D10*
%TO.C,SW33*%
X63000000Y-3700000D03*
X68000000Y-5900000D03*
D11*
X73550000Y5000000D03*
D12*
X59700000Y-3700000D03*
X71300000Y-5900000D03*
%TD*%
D13*
%TO.C,D40*%
X150415000Y-59360000D03*
X153965000Y-59360000D03*
%TD*%
D10*
%TO.C,SW8*%
X29000000Y-20700000D03*
X34000000Y-22900000D03*
D11*
X39550000Y-12000000D03*
D12*
X25700000Y-20700000D03*
X37300000Y-22900000D03*
%TD*%
D13*
%TO.C,D39*%
X161445000Y-42550000D03*
X164995000Y-42550000D03*
%TD*%
%TO.C,D11*%
X43555000Y-42580000D03*
X47105000Y-42580000D03*
%TD*%
D10*
%TO.C,SW6*%
X12000000Y-20700000D03*
X17000000Y-22900000D03*
D11*
X22550000Y-12000000D03*
D12*
X8700000Y-20700000D03*
X20300000Y-22900000D03*
%TD*%
D10*
%TO.C,SW18*%
X119000000Y-20700000D03*
X124000000Y-22900000D03*
D11*
X129550000Y-12000000D03*
D12*
X115700000Y-20700000D03*
X127300000Y-22900000D03*
%TD*%
D13*
%TO.C,D35*%
X99255000Y-42490000D03*
X102805000Y-42490000D03*
%TD*%
%TO.C,D29*%
X9405000Y-42490000D03*
X12955000Y-42490000D03*
%TD*%
D10*
%TO.C,SW7*%
X29000000Y-3700000D03*
X34000000Y-5900000D03*
D11*
X39550000Y5000000D03*
D12*
X25700000Y-3700000D03*
X37300000Y-5900000D03*
%TD*%
D13*
%TO.C,D5*%
X9315000Y-8520000D03*
X12865000Y-8520000D03*
%TD*%
D10*
%TO.C,SW36*%
X102000000Y-54700000D03*
X107000000Y-56900000D03*
D11*
X112550000Y-46000000D03*
D12*
X98700000Y-54700000D03*
X110300000Y-56900000D03*
%TD*%
D10*
%TO.C,SW17*%
X119000000Y-3700000D03*
X124000000Y-5900000D03*
D11*
X129550000Y5000000D03*
D12*
X115700000Y-3700000D03*
X127300000Y-5900000D03*
%TD*%
D10*
%TO.C,SW19*%
X119000000Y-37700000D03*
X124000000Y-39900000D03*
D11*
X129550000Y-29000000D03*
D12*
X115700000Y-37700000D03*
X127300000Y-39900000D03*
%TD*%
D13*
%TO.C,D10*%
X43605000Y-25550000D03*
X47155000Y-25550000D03*
%TD*%
D10*
%TO.C,SW29*%
X12000000Y-37700000D03*
X17000000Y-39900000D03*
D11*
X22550000Y-29000000D03*
D12*
X8700000Y-37700000D03*
X20300000Y-39900000D03*
%TD*%
D10*
%TO.C,SW25*%
X170000000Y-3700000D03*
X175000000Y-5900000D03*
D11*
X180550000Y5000000D03*
D12*
X166700000Y-3700000D03*
X178300000Y-5900000D03*
%TD*%
D10*
%TO.C,SW24*%
X153000000Y-20700000D03*
X158000000Y-22900000D03*
D11*
X163550000Y-12000000D03*
D12*
X149700000Y-20700000D03*
X161300000Y-22900000D03*
%TD*%
D10*
%TO.C,SW1*%
X-5000000Y-3700000D03*
X0Y-5900000D03*
D11*
X5550000Y5000000D03*
D12*
X-8300000Y-3700000D03*
X3300000Y-5900000D03*
%TD*%
D13*
%TO.C,D32*%
X26285000Y-59300000D03*
X29835000Y-59300000D03*
%TD*%
%TO.C,D15*%
X99275000Y-8470000D03*
X102825000Y-8470000D03*
%TD*%
D10*
%TO.C,SW26*%
X170000000Y-20700000D03*
X175000000Y-22900000D03*
D11*
X180550000Y-12000000D03*
D12*
X166700000Y-20700000D03*
X178300000Y-22900000D03*
%TD*%
D10*
%TO.C,SW23*%
X153000000Y-3700000D03*
X158000000Y-5900000D03*
D11*
X163550000Y5000000D03*
D12*
X149700000Y-3700000D03*
X161300000Y-5900000D03*
%TD*%
D10*
%TO.C,SW3*%
X-5000000Y-37700000D03*
X0Y-39900000D03*
D11*
X5550000Y-29000000D03*
D12*
X-8300000Y-37700000D03*
X3300000Y-39900000D03*
%TD*%
D13*
%TO.C,D14*%
X60215000Y-59320000D03*
X63765000Y-59320000D03*
%TD*%
D10*
%TO.C,SW39*%
X153000000Y-37700000D03*
X158000000Y-39900000D03*
D11*
X163550000Y-29000000D03*
D12*
X149700000Y-37700000D03*
X161300000Y-39900000D03*
%TD*%
D13*
%TO.C,D23*%
X161375000Y-8470000D03*
X164925000Y-8470000D03*
%TD*%
%TO.C,D12*%
X43375000Y-59320000D03*
X46925000Y-59320000D03*
%TD*%
%TO.C,D34*%
X60525000Y-25540000D03*
X64075000Y-25540000D03*
%TD*%
D17*
%TO.C,SW46*%
X84430000Y-8380000D03*
X90930000Y-8380000D03*
%TD*%
D10*
%TO.C,SW13*%
X63000000Y-37700000D03*
X68000000Y-39900000D03*
D11*
X73550000Y-29000000D03*
D12*
X59700000Y-37700000D03*
X71300000Y-39900000D03*
%TD*%
D10*
%TO.C,SW27*%
X170000000Y-37700000D03*
X175000000Y-39900000D03*
D11*
X180550000Y-29000000D03*
D12*
X166700000Y-37700000D03*
X178300000Y-39900000D03*
%TD*%
D13*
%TO.C,D17*%
X116215000Y-8450000D03*
X119765000Y-8450000D03*
%TD*%
D10*
%TO.C,SW34*%
X63000000Y-20700000D03*
X68000000Y-22900000D03*
D11*
X73550000Y-12000000D03*
D12*
X59700000Y-20700000D03*
X71300000Y-22900000D03*
%TD*%
D13*
%TO.C,D13*%
X60115000Y-42510000D03*
X63665000Y-42510000D03*
%TD*%
D18*
%TO.C,SW45*%
X181960000Y-3540000D03*
X181960000Y-6040000D03*
X181960000Y-8540000D03*
%TD*%
D10*
%TO.C,SW32*%
X29000000Y-54700000D03*
X34000000Y-56900000D03*
D11*
X39550000Y-46000000D03*
D12*
X25700000Y-54700000D03*
X37300000Y-56900000D03*
%TD*%
D13*
%TO.C,D38*%
X133165000Y-25580000D03*
X136715000Y-25580000D03*
%TD*%
%TO.C,D20*%
X116135000Y-59270000D03*
X119685000Y-59270000D03*
%TD*%
%TO.C,D16*%
X99245000Y-25520000D03*
X102795000Y-25520000D03*
%TD*%
D10*
%TO.C,SW22*%
X136000000Y-54700000D03*
X141000000Y-56900000D03*
D11*
X146550000Y-46000000D03*
D12*
X132700000Y-54700000D03*
X144300000Y-56900000D03*
%TD*%
D13*
%TO.C,D7*%
X37475000Y-8430000D03*
X41025000Y-8430000D03*
%TD*%
D10*
%TO.C,SW15*%
X102000000Y-3700000D03*
X107000000Y-5900000D03*
D11*
X112550000Y5000000D03*
D12*
X98700000Y-3700000D03*
X110300000Y-5900000D03*
%TD*%
D13*
%TO.C,D33*%
X60305000Y-8550000D03*
X63855000Y-8550000D03*
%TD*%
D10*
%TO.C,SW37*%
X136000000Y-3700000D03*
X141000000Y-5900000D03*
D11*
X146550000Y5000000D03*
D12*
X132700000Y-3700000D03*
X144300000Y-5900000D03*
%TD*%
D10*
%TO.C,SW21*%
X136000000Y-37700000D03*
X141000000Y-39900000D03*
D11*
X146550000Y-29000000D03*
D12*
X132700000Y-37700000D03*
X144300000Y-39900000D03*
%TD*%
D10*
%TO.C,SW9*%
X46000000Y-3700000D03*
X51000000Y-5900000D03*
D11*
X56550000Y5000000D03*
D12*
X42700000Y-3700000D03*
X54300000Y-5900000D03*
%TD*%
D19*
%TO.C,U1*%
X95590000Y13920000D03*
X95590000Y11380000D03*
X95590000Y8840000D03*
X95590000Y6300000D03*
X95590000Y3760000D03*
X95590000Y1220000D03*
X95590000Y-1320000D03*
X79350000Y-1320000D03*
X79350000Y1220000D03*
X79350000Y3760000D03*
X79350000Y6300000D03*
X79350000Y8840000D03*
X79350000Y11380000D03*
X79350000Y13920000D03*
D20*
X83634600Y-3012000D03*
X81755000Y-3012000D03*
X91915000Y6617000D03*
X91915000Y8522000D03*
D21*
X89350000Y12370000D03*
X85630000Y12310000D03*
%TD*%
M02*
