%TF.GenerationSoftware,KiCad,Pcbnew,8.0.7*%
%TF.CreationDate,2025-05-30T21:54:57+09:00*%
%TF.ProjectId,cool640zmk,636f6f6c-3634-4307-9a6d-6b2e6b696361,rev?*%
%TF.SameCoordinates,Original*%
%TF.FileFunction,Copper,L2,Bot*%
%TF.FilePolarity,Positive*%
%FSLAX46Y46*%
G04 Gerber Fmt 4.6, Leading zero omitted, Abs format (unit mm)*
G04 Created by KiCad (PCBNEW 8.0.7) date 2025-05-30 21:54:57*
%MOMM*%
%LPD*%
G01*
G04 APERTURE LIST*
%TA.AperFunction,ComponentPad*%
%ADD10O,2.200000X1.500000*%
%TD*%
%TA.AperFunction,SMDPad,CuDef*%
%ADD11R,2.600000X2.600000*%
%TD*%
%TA.AperFunction,SMDPad,CuDef*%
%ADD12R,1.300000X0.950000*%
%TD*%
%TA.AperFunction,ComponentPad*%
%ADD13R,1.600000X1.600000*%
%TD*%
%TA.AperFunction,ComponentPad*%
%ADD14C,1.600000*%
%TD*%
%TA.AperFunction,ComponentPad*%
%ADD15R,2.000000X2.000000*%
%TD*%
%TA.AperFunction,ComponentPad*%
%ADD16C,2.000000*%
%TD*%
%TA.AperFunction,ComponentPad*%
%ADD17O,1.000000X1.300000*%
%TD*%
%TA.AperFunction,ComponentPad*%
%ADD18O,2.750000X1.800000*%
%TD*%
%TA.AperFunction,ComponentPad*%
%ADD19C,1.500000*%
%TD*%
%TA.AperFunction,ComponentPad*%
%ADD20C,1.524000*%
%TD*%
%TA.AperFunction,ViaPad*%
%ADD21C,0.600000*%
%TD*%
%TA.AperFunction,Conductor*%
%ADD22C,0.200000*%
%TD*%
G04 APERTURE END LIST*
D10*
%TO.P,SW40,*%
%TO.N,*%
X163550000Y-46000000D03*
D11*
%TO.P,SW40,1,1*%
%TO.N,col5*%
X149700000Y-54700000D03*
%TO.P,SW40,2,2*%
%TO.N,Net-(D40-A)*%
X161300000Y-56900000D03*
%TD*%
D10*
%TO.P,SW28,*%
%TO.N,*%
X180550000Y-46000000D03*
D11*
%TO.P,SW28,1,1*%
%TO.N,col6*%
X166700000Y-54700000D03*
%TO.P,SW28,2,2*%
%TO.N,Net-(D28-A)*%
X178300000Y-56900000D03*
%TD*%
D12*
%TO.P,D1,1,K*%
%TO.N,Row0*%
X-7675000Y-8480000D03*
%TO.P,D1,2,A*%
%TO.N,Net-(D1-A)*%
X-4125000Y-8480000D03*
%TD*%
%TO.P,D4,1,K*%
%TO.N,Row3*%
X-7525000Y-59440000D03*
%TO.P,D4,2,A*%
%TO.N,Net-(D4-A)*%
X-3975000Y-59440000D03*
%TD*%
%TO.P,D27,1,K*%
%TO.N,Row2*%
X167205000Y-42490000D03*
%TO.P,D27,2,A*%
%TO.N,Net-(D27-A)*%
X170755000Y-42490000D03*
%TD*%
%TO.P,D28,1,K*%
%TO.N,Row3*%
X166935000Y-59300000D03*
%TO.P,D28,2,A*%
%TO.N,Net-(D28-A)*%
X170485000Y-59300000D03*
%TD*%
D10*
%TO.P,SW12,*%
%TO.N,*%
X56550000Y-46000000D03*
D11*
%TO.P,SW12,1,1*%
%TO.N,Col2*%
X42700000Y-54700000D03*
%TO.P,SW12,2,2*%
%TO.N,Net-(D12-A)*%
X54300000Y-56900000D03*
%TD*%
D12*
%TO.P,D21,1,K*%
%TO.N,Row0*%
X133115000Y-42460000D03*
%TO.P,D21,2,A*%
%TO.N,Net-(D21-A)*%
X136665000Y-42460000D03*
%TD*%
D10*
%TO.P,SW14,*%
%TO.N,*%
X73550000Y-46000000D03*
D11*
%TO.P,SW14,1,1*%
%TO.N,Col3*%
X59700000Y-54700000D03*
%TO.P,SW14,2,2*%
%TO.N,Net-(D14-A)*%
X71300000Y-56900000D03*
%TD*%
D12*
%TO.P,D9,1,K*%
%TO.N,Row0*%
X43645000Y-8440000D03*
%TO.P,D9,2,A*%
%TO.N,Net-(D9-A)*%
X47195000Y-8440000D03*
%TD*%
D10*
%TO.P,SW2,*%
%TO.N,*%
X5550000Y-12000000D03*
D11*
%TO.P,SW2,1,1*%
%TO.N,Col0*%
X-8300000Y-20700000D03*
%TO.P,SW2,2,2*%
%TO.N,Net-(D2-A)*%
X3300000Y-22900000D03*
%TD*%
D10*
%TO.P,SW4,*%
%TO.N,*%
X5550000Y-46000000D03*
D11*
%TO.P,SW4,1,1*%
%TO.N,Col0*%
X-8300000Y-54700000D03*
%TO.P,SW4,2,2*%
%TO.N,Net-(D4-A)*%
X3300000Y-56900000D03*
%TD*%
D12*
%TO.P,D3,1,K*%
%TO.N,Row2*%
X-7675000Y-42490000D03*
%TO.P,D3,2,A*%
%TO.N,Net-(D3-A)*%
X-4125000Y-42490000D03*
%TD*%
D10*
%TO.P,SW10,*%
%TO.N,*%
X56550000Y-12000000D03*
D11*
%TO.P,SW10,1,1*%
%TO.N,Col2*%
X42700000Y-20700000D03*
%TO.P,SW10,2,2*%
%TO.N,Net-(D10-A)*%
X54300000Y-22900000D03*
%TD*%
D12*
%TO.P,D30,1,K*%
%TO.N,Row5*%
X9395000Y-59300000D03*
%TO.P,D30,2,A*%
%TO.N,Net-(D30-A)*%
X12945000Y-59300000D03*
%TD*%
D13*
%TO.P,J1,1,Pin_1*%
%TO.N,GND*%
X74470000Y12240000D03*
D14*
%TO.P,J1,2,Pin_2*%
%TO.N,Net-(B1-+)*%
X71950000Y12240000D03*
%TD*%
D15*
%TO.P,B1,1,+*%
%TO.N,Net-(B1-+)*%
X117920000Y9780000D03*
D16*
%TO.P,B1,2,-*%
%TO.N,Net-(B1--)*%
X162720000Y9780000D03*
%TD*%
D10*
%TO.P,SW11,*%
%TO.N,*%
X56550000Y-29000000D03*
D11*
%TO.P,SW11,1,1*%
%TO.N,Col2*%
X42700000Y-37700000D03*
%TO.P,SW11,2,2*%
%TO.N,Net-(D11-A)*%
X54300000Y-39900000D03*
%TD*%
D12*
%TO.P,D22,1,K*%
%TO.N,Row1*%
X133275000Y-59300000D03*
%TO.P,D22,2,A*%
%TO.N,Net-(D22-A)*%
X136825000Y-59300000D03*
%TD*%
D10*
%TO.P,SW5,*%
%TO.N,*%
X22550000Y5000000D03*
D11*
%TO.P,SW5,1,1*%
%TO.N,Col1*%
X8700000Y-3700000D03*
%TO.P,SW5,2,2*%
%TO.N,Net-(D5-A)*%
X20300000Y-5900000D03*
%TD*%
D10*
%TO.P,SW38,*%
%TO.N,*%
X146550000Y-12000000D03*
D11*
%TO.P,SW38,1,1*%
%TO.N,Col4*%
X132700000Y-20700000D03*
%TO.P,SW38,2,2*%
%TO.N,Net-(D38-A)*%
X144300000Y-22900000D03*
%TD*%
D12*
%TO.P,D37,1,K*%
%TO.N,Row4*%
X133185000Y-8500000D03*
%TO.P,D37,2,A*%
%TO.N,Net-(D37-A)*%
X136735000Y-8500000D03*
%TD*%
%TO.P,D2,1,K*%
%TO.N,Row1*%
X-7715000Y-25480000D03*
%TO.P,D2,2,A*%
%TO.N,Net-(D2-A)*%
X-4165000Y-25480000D03*
%TD*%
D10*
%TO.P,SW31,*%
%TO.N,*%
X39550000Y-29000000D03*
D11*
%TO.P,SW31,1,1*%
%TO.N,Col1*%
X25700000Y-37700000D03*
%TO.P,SW31,2,2*%
%TO.N,Net-(D31-A)*%
X37300000Y-39900000D03*
%TD*%
D12*
%TO.P,D8,1,K*%
%TO.N,Row3*%
X26235000Y-25480000D03*
%TO.P,D8,2,A*%
%TO.N,Net-(D8-A)*%
X29785000Y-25480000D03*
%TD*%
%TO.P,D25,1,K*%
%TO.N,Row0*%
X167395000Y-8500000D03*
%TO.P,D25,2,A*%
%TO.N,Net-(D25-A)*%
X170945000Y-8500000D03*
%TD*%
%TO.P,D26,1,K*%
%TO.N,Row1*%
X167245000Y-25560000D03*
%TO.P,D26,2,A*%
%TO.N,Net-(D26-A)*%
X170795000Y-25560000D03*
%TD*%
D10*
%TO.P,SW30,*%
%TO.N,*%
X22550000Y-46000000D03*
D11*
%TO.P,SW30,1,1*%
%TO.N,Col0*%
X8700000Y-54700000D03*
%TO.P,SW30,2,2*%
%TO.N,Net-(D30-A)*%
X20300000Y-56900000D03*
%TD*%
D12*
%TO.P,D6,1,K*%
%TO.N,Row1*%
X9415000Y-25510000D03*
%TO.P,D6,2,A*%
%TO.N,Net-(D6-A)*%
X12965000Y-25510000D03*
%TD*%
D10*
%TO.P,SW16,*%
%TO.N,*%
X112550000Y-12000000D03*
D11*
%TO.P,SW16,1,1*%
%TO.N,Col3*%
X98700000Y-20700000D03*
%TO.P,SW16,2,2*%
%TO.N,Net-(D16-A)*%
X110300000Y-22900000D03*
%TD*%
D12*
%TO.P,D19,1,K*%
%TO.N,Row2*%
X115825000Y-42510000D03*
%TO.P,D19,2,A*%
%TO.N,Net-(D19-A)*%
X119375000Y-42510000D03*
%TD*%
%TO.P,D24,1,K*%
%TO.N,Row3*%
X150355000Y-25510000D03*
%TO.P,D24,2,A*%
%TO.N,Net-(D24-A)*%
X153905000Y-25510000D03*
%TD*%
D15*
%TO.P,B2,1,+*%
%TO.N,Net-(B1--)*%
X12280000Y9560000D03*
D16*
%TO.P,B2,2,-*%
%TO.N,GND*%
X57080000Y9560000D03*
%TD*%
D12*
%TO.P,D31,1,K*%
%TO.N,Row4*%
X37555000Y-42610000D03*
%TO.P,D31,2,A*%
%TO.N,Net-(D31-A)*%
X41105000Y-42610000D03*
%TD*%
D10*
%TO.P,SW35,*%
%TO.N,*%
X112550000Y-29000000D03*
D11*
%TO.P,SW35,1,1*%
%TO.N,Col3*%
X98700000Y-37700000D03*
%TO.P,SW35,2,2*%
%TO.N,Net-(D35-A)*%
X110300000Y-39900000D03*
%TD*%
D10*
%TO.P,SW20,*%
%TO.N,*%
X129550000Y-46000000D03*
D11*
%TO.P,SW20,1,1*%
%TO.N,Col4*%
X115700000Y-54700000D03*
%TO.P,SW20,2,2*%
%TO.N,Net-(D20-A)*%
X127300000Y-56900000D03*
%TD*%
D12*
%TO.P,D18,1,K*%
%TO.N,Row1*%
X116065000Y-25500000D03*
%TO.P,D18,2,A*%
%TO.N,Net-(D18-A)*%
X119615000Y-25500000D03*
%TD*%
%TO.P,D36,1,K*%
%TO.N,Row5*%
X99405000Y-59330000D03*
%TO.P,D36,2,A*%
%TO.N,Net-(D36-A)*%
X102955000Y-59330000D03*
%TD*%
D10*
%TO.P,SW33,*%
%TO.N,*%
X73550000Y5000000D03*
D11*
%TO.P,SW33,1,1*%
%TO.N,Col2*%
X59700000Y-3700000D03*
%TO.P,SW33,2,2*%
%TO.N,Net-(D33-A)*%
X71300000Y-5900000D03*
%TD*%
D12*
%TO.P,D40,1,K*%
%TO.N,Row5*%
X150415000Y-59360000D03*
%TO.P,D40,2,A*%
%TO.N,Net-(D40-A)*%
X153965000Y-59360000D03*
%TD*%
D10*
%TO.P,SW8,*%
%TO.N,*%
X39550000Y-12000000D03*
D11*
%TO.P,SW8,1,1*%
%TO.N,Col1*%
X25700000Y-20700000D03*
%TO.P,SW8,2,2*%
%TO.N,Net-(D8-A)*%
X37300000Y-22900000D03*
%TD*%
D12*
%TO.P,D39,1,K*%
%TO.N,Row4*%
X161445000Y-42550000D03*
%TO.P,D39,2,A*%
%TO.N,Net-(D39-A)*%
X164995000Y-42550000D03*
%TD*%
%TO.P,D11,1,K*%
%TO.N,Row2*%
X43555000Y-42580000D03*
%TO.P,D11,2,A*%
%TO.N,Net-(D11-A)*%
X47105000Y-42580000D03*
%TD*%
D10*
%TO.P,SW6,*%
%TO.N,*%
X22550000Y-12000000D03*
D11*
%TO.P,SW6,1,1*%
%TO.N,Col1*%
X8700000Y-20700000D03*
%TO.P,SW6,2,2*%
%TO.N,Net-(D6-A)*%
X20300000Y-22900000D03*
%TD*%
D10*
%TO.P,SW18,*%
%TO.N,*%
X129550000Y-12000000D03*
D11*
%TO.P,SW18,1,1*%
%TO.N,Col4*%
X115700000Y-20700000D03*
%TO.P,SW18,2,2*%
%TO.N,Net-(D18-A)*%
X127300000Y-22900000D03*
%TD*%
D12*
%TO.P,D35,1,K*%
%TO.N,Row4*%
X99255000Y-42490000D03*
%TO.P,D35,2,A*%
%TO.N,Net-(D35-A)*%
X102805000Y-42490000D03*
%TD*%
%TO.P,D29,1,K*%
%TO.N,Row4*%
X9405000Y-42490000D03*
%TO.P,D29,2,A*%
%TO.N,Net-(D29-A)*%
X12955000Y-42490000D03*
%TD*%
D10*
%TO.P,SW7,*%
%TO.N,*%
X39550000Y5000000D03*
D11*
%TO.P,SW7,1,1*%
%TO.N,Col1*%
X25700000Y-3700000D03*
%TO.P,SW7,2,2*%
%TO.N,Net-(D7-A)*%
X37300000Y-5900000D03*
%TD*%
D12*
%TO.P,D5,1,K*%
%TO.N,Row0*%
X9315000Y-8520000D03*
%TO.P,D5,2,A*%
%TO.N,Net-(D5-A)*%
X12865000Y-8520000D03*
%TD*%
D10*
%TO.P,SW36,*%
%TO.N,*%
X112550000Y-46000000D03*
D11*
%TO.P,SW36,1,1*%
%TO.N,Col3*%
X98700000Y-54700000D03*
%TO.P,SW36,2,2*%
%TO.N,Net-(D36-A)*%
X110300000Y-56900000D03*
%TD*%
D10*
%TO.P,SW17,*%
%TO.N,*%
X129550000Y5000000D03*
D11*
%TO.P,SW17,1,1*%
%TO.N,Col4*%
X115700000Y-3700000D03*
%TO.P,SW17,2,2*%
%TO.N,Net-(D17-A)*%
X127300000Y-5900000D03*
%TD*%
D10*
%TO.P,SW19,*%
%TO.N,*%
X129550000Y-29000000D03*
D11*
%TO.P,SW19,1,1*%
%TO.N,Col4*%
X115700000Y-37700000D03*
%TO.P,SW19,2,2*%
%TO.N,Net-(D19-A)*%
X127300000Y-39900000D03*
%TD*%
D12*
%TO.P,D10,1,K*%
%TO.N,Row1*%
X43605000Y-25550000D03*
%TO.P,D10,2,A*%
%TO.N,Net-(D10-A)*%
X47155000Y-25550000D03*
%TD*%
D10*
%TO.P,SW29,*%
%TO.N,*%
X22550000Y-29000000D03*
D11*
%TO.P,SW29,1,1*%
%TO.N,Col0*%
X8700000Y-37700000D03*
%TO.P,SW29,2,2*%
%TO.N,Net-(D29-A)*%
X20300000Y-39900000D03*
%TD*%
D10*
%TO.P,SW25,*%
%TO.N,*%
X180550000Y5000000D03*
D11*
%TO.P,SW25,1,1*%
%TO.N,col6*%
X166700000Y-3700000D03*
%TO.P,SW25,2,2*%
%TO.N,Net-(D25-A)*%
X178300000Y-5900000D03*
%TD*%
D10*
%TO.P,SW24,*%
%TO.N,*%
X163550000Y-12000000D03*
D11*
%TO.P,SW24,1,1*%
%TO.N,col5*%
X149700000Y-20700000D03*
%TO.P,SW24,2,2*%
%TO.N,Net-(D24-A)*%
X161300000Y-22900000D03*
%TD*%
D10*
%TO.P,SW1,*%
%TO.N,*%
X5550000Y5000000D03*
D11*
%TO.P,SW1,1,1*%
%TO.N,Col0*%
X-8300000Y-3700000D03*
%TO.P,SW1,2,2*%
%TO.N,Net-(D1-A)*%
X3300000Y-5900000D03*
%TD*%
D12*
%TO.P,D32,1,K*%
%TO.N,Row5*%
X26285000Y-59300000D03*
%TO.P,D32,2,A*%
%TO.N,Net-(D32-A)*%
X29835000Y-59300000D03*
%TD*%
%TO.P,D15,1,K*%
%TO.N,Row2*%
X99275000Y-8470000D03*
%TO.P,D15,2,A*%
%TO.N,Net-(D15-A)*%
X102825000Y-8470000D03*
%TD*%
D10*
%TO.P,SW26,*%
%TO.N,*%
X180550000Y-12000000D03*
D11*
%TO.P,SW26,1,1*%
%TO.N,col6*%
X166700000Y-20700000D03*
%TO.P,SW26,2,2*%
%TO.N,Net-(D26-A)*%
X178300000Y-22900000D03*
%TD*%
D10*
%TO.P,SW23,*%
%TO.N,*%
X163550000Y5000000D03*
D11*
%TO.P,SW23,1,1*%
%TO.N,col5*%
X149700000Y-3700000D03*
%TO.P,SW23,2,2*%
%TO.N,Net-(D23-A)*%
X161300000Y-5900000D03*
%TD*%
D10*
%TO.P,SW3,*%
%TO.N,*%
X5550000Y-29000000D03*
D11*
%TO.P,SW3,1,1*%
%TO.N,Col0*%
X-8300000Y-37700000D03*
%TO.P,SW3,2,2*%
%TO.N,Net-(D3-A)*%
X3300000Y-39900000D03*
%TD*%
D12*
%TO.P,D14,1,K*%
%TO.N,Row1*%
X60215000Y-59320000D03*
%TO.P,D14,2,A*%
%TO.N,Net-(D14-A)*%
X63765000Y-59320000D03*
%TD*%
D10*
%TO.P,SW39,*%
%TO.N,*%
X163550000Y-29000000D03*
D11*
%TO.P,SW39,1,1*%
%TO.N,col5*%
X149700000Y-37700000D03*
%TO.P,SW39,2,2*%
%TO.N,Net-(D39-A)*%
X161300000Y-39900000D03*
%TD*%
D12*
%TO.P,D23,1,K*%
%TO.N,Row2*%
X161375000Y-8470000D03*
%TO.P,D23,2,A*%
%TO.N,Net-(D23-A)*%
X164925000Y-8470000D03*
%TD*%
%TO.P,D12,1,K*%
%TO.N,Row3*%
X43375000Y-59320000D03*
%TO.P,D12,2,A*%
%TO.N,Net-(D12-A)*%
X46925000Y-59320000D03*
%TD*%
%TO.P,D34,1,K*%
%TO.N,Row5*%
X60525000Y-25540000D03*
%TO.P,D34,2,A*%
%TO.N,Net-(D34-A)*%
X64075000Y-25540000D03*
%TD*%
D16*
%TO.P,SW46,1,1*%
%TO.N,RST*%
X84430000Y-8380000D03*
%TO.P,SW46,2,2*%
%TO.N,GND*%
X90930000Y-8380000D03*
%TD*%
D10*
%TO.P,SW13,*%
%TO.N,*%
X73550000Y-29000000D03*
D11*
%TO.P,SW13,1,1*%
%TO.N,Col3*%
X59700000Y-37700000D03*
%TO.P,SW13,2,2*%
%TO.N,Net-(D13-A)*%
X71300000Y-39900000D03*
%TD*%
D10*
%TO.P,SW27,*%
%TO.N,*%
X180550000Y-29000000D03*
D11*
%TO.P,SW27,1,1*%
%TO.N,col6*%
X166700000Y-37700000D03*
%TO.P,SW27,2,2*%
%TO.N,Net-(D27-A)*%
X178300000Y-39900000D03*
%TD*%
D12*
%TO.P,D17,1,K*%
%TO.N,Row0*%
X116215000Y-8450000D03*
%TO.P,D17,2,A*%
%TO.N,Net-(D17-A)*%
X119765000Y-8450000D03*
%TD*%
D10*
%TO.P,SW34,*%
%TO.N,*%
X73550000Y-12000000D03*
D11*
%TO.P,SW34,1,1*%
%TO.N,Col2*%
X59700000Y-20700000D03*
%TO.P,SW34,2,2*%
%TO.N,Net-(D34-A)*%
X71300000Y-22900000D03*
%TD*%
D12*
%TO.P,D13,1,K*%
%TO.N,Row0*%
X60115000Y-42510000D03*
%TO.P,D13,2,A*%
%TO.N,Net-(D13-A)*%
X63665000Y-42510000D03*
%TD*%
D17*
%TO.P,SW45,1,A*%
%TO.N,Net-(B1-+)*%
X181960000Y-3540000D03*
%TO.P,SW45,2,B*%
%TO.N,Bat*%
X181960000Y-6040000D03*
%TO.P,SW45,3,C*%
%TO.N,unconnected-(SW45-C-Pad3)*%
X181960000Y-8540000D03*
%TD*%
D10*
%TO.P,SW32,*%
%TO.N,*%
X39550000Y-46000000D03*
D11*
%TO.P,SW32,1,1*%
%TO.N,Col1*%
X25700000Y-54700000D03*
%TO.P,SW32,2,2*%
%TO.N,Net-(D32-A)*%
X37300000Y-56900000D03*
%TD*%
D12*
%TO.P,D38,1,K*%
%TO.N,Row5*%
X133165000Y-25580000D03*
%TO.P,D38,2,A*%
%TO.N,Net-(D38-A)*%
X136715000Y-25580000D03*
%TD*%
%TO.P,D20,1,K*%
%TO.N,Row3*%
X116135000Y-59270000D03*
%TO.P,D20,2,A*%
%TO.N,Net-(D20-A)*%
X119685000Y-59270000D03*
%TD*%
%TO.P,D16,1,K*%
%TO.N,Row3*%
X99245000Y-25520000D03*
%TO.P,D16,2,A*%
%TO.N,Net-(D16-A)*%
X102795000Y-25520000D03*
%TD*%
D10*
%TO.P,SW22,*%
%TO.N,*%
X146550000Y-46000000D03*
D11*
%TO.P,SW22,1,1*%
%TO.N,col5*%
X132700000Y-54700000D03*
%TO.P,SW22,2,2*%
%TO.N,Net-(D22-A)*%
X144300000Y-56900000D03*
%TD*%
D12*
%TO.P,D7,1,K*%
%TO.N,Row2*%
X37475000Y-8430000D03*
%TO.P,D7,2,A*%
%TO.N,Net-(D7-A)*%
X41025000Y-8430000D03*
%TD*%
D10*
%TO.P,SW15,*%
%TO.N,*%
X112550000Y5000000D03*
D11*
%TO.P,SW15,1,1*%
%TO.N,Col3*%
X98700000Y-3700000D03*
%TO.P,SW15,2,2*%
%TO.N,Net-(D15-A)*%
X110300000Y-5900000D03*
%TD*%
D12*
%TO.P,D33,1,K*%
%TO.N,Row4*%
X60305000Y-8550000D03*
%TO.P,D33,2,A*%
%TO.N,Net-(D33-A)*%
X63855000Y-8550000D03*
%TD*%
D10*
%TO.P,SW37,*%
%TO.N,*%
X146550000Y5000000D03*
D11*
%TO.P,SW37,1,1*%
%TO.N,Col4*%
X132700000Y-3700000D03*
%TO.P,SW37,2,2*%
%TO.N,Net-(D37-A)*%
X144300000Y-5900000D03*
%TD*%
D10*
%TO.P,SW21,*%
%TO.N,*%
X146550000Y-29000000D03*
D11*
%TO.P,SW21,1,1*%
%TO.N,col5*%
X132700000Y-37700000D03*
%TO.P,SW21,2,2*%
%TO.N,Net-(D21-A)*%
X144300000Y-39900000D03*
%TD*%
D10*
%TO.P,SW9,*%
%TO.N,*%
X56550000Y5000000D03*
D11*
%TO.P,SW9,1,1*%
%TO.N,Col2*%
X42700000Y-3700000D03*
%TO.P,SW9,2,2*%
%TO.N,Net-(D9-A)*%
X54300000Y-5900000D03*
%TD*%
D18*
%TO.P,U1,1,P0.02_A0_D0*%
%TO.N,Row4*%
X95590000Y13920000D03*
%TO.P,U1,2,P0.03_A1_D1*%
%TO.N,Row5*%
X95590000Y11380000D03*
%TO.P,U1,3,P0.28_A2_D2*%
%TO.N,col6*%
X95590000Y8840000D03*
%TO.P,U1,4,P0.29_A3_D3*%
%TO.N,col5*%
X95590000Y6300000D03*
%TO.P,U1,5,P0.04_A4_D4_SDA*%
%TO.N,Col4*%
X95590000Y3760000D03*
%TO.P,U1,6,P0.05_A5_D5_SCL*%
%TO.N,Row0*%
X95590000Y1220000D03*
%TO.P,U1,7,P1.11_D6_TX*%
%TO.N,Row1*%
X95590000Y-1320000D03*
%TO.P,U1,8,P1.12_D7_RX*%
%TO.N,Col3*%
X79350000Y-1320000D03*
%TO.P,U1,9,P1.13_D8_SCK*%
%TO.N,Col2*%
X79350000Y1220000D03*
%TO.P,U1,10,P1.14_D9_MISO*%
%TO.N,Col1*%
X79350000Y3760000D03*
%TO.P,U1,11,P1.15_D10_MOSI*%
%TO.N,Col0*%
X79350000Y6300000D03*
%TO.P,U1,12,3V3*%
%TO.N,unconnected-(U1-3V3-Pad12)*%
X79350000Y8840000D03*
%TO.P,U1,13,GND*%
%TO.N,GND*%
X79350000Y11380000D03*
%TO.P,U1,14,5V*%
%TO.N,VCC*%
X79350000Y13920000D03*
D19*
%TO.P,U1,15,NFC1_0.09*%
%TO.N,Row2*%
X83634600Y-3012000D03*
%TO.P,U1,16,NFC2_0.10*%
%TO.N,Row3*%
X81755000Y-3012000D03*
%TO.P,U1,20,BATT+*%
%TO.N,Bat*%
X91915000Y6617000D03*
%TO.P,U1,21,BATT-*%
%TO.N,GND*%
X91915000Y8522000D03*
D20*
%TO.P,U1,22,RST*%
%TO.N,RST*%
X89350000Y12370000D03*
%TO.P,U1,23,GND*%
%TO.N,GND*%
X85630000Y12310000D03*
%TD*%
D21*
%TO.N,Bat*%
X182710000Y7450000D03*
%TO.N,Row0*%
X167320000Y-13770000D03*
X-7680000Y-10500000D03*
X93880000Y-10360000D03*
X133540000Y-13730000D03*
X9330000Y-10500000D03*
X116230000Y-10770000D03*
X133510000Y-10770000D03*
X43540000Y-10480000D03*
X58060000Y-10360000D03*
%TO.N,Row1*%
X131110000Y-27950000D03*
X60220000Y-61960000D03*
X167280000Y-27930000D03*
X9450000Y-27720000D03*
X43550000Y-27730000D03*
X133270000Y-62160000D03*
X-7760000Y-27720000D03*
X116040000Y-27950000D03*
X95350000Y-27950000D03*
%TO.N,Row2*%
X82480000Y-13080000D03*
X37460000Y-13080000D03*
X82430000Y-44590000D03*
X167230000Y-44380000D03*
X161450000Y-12900000D03*
X168310000Y-13150000D03*
X-7640000Y-44720000D03*
X99280000Y-13050000D03*
X115830000Y-44470000D03*
X43570000Y-44590000D03*
%TO.N,Row3*%
X81720000Y-60700000D03*
X81755000Y-27350000D03*
X150340000Y-27350000D03*
X26240000Y-27010000D03*
X43380000Y-60760000D03*
X-7500000Y-60760000D03*
X166870000Y-61560000D03*
X151380000Y-61560000D03*
X116130000Y-61530000D03*
X99200000Y-27350000D03*
%TO.N,Col0*%
X-8625000Y-47150000D03*
X8455000Y-47180000D03*
X-8300000Y6330000D03*
%TO.N,Col1*%
X8365000Y-13950000D03*
X25700000Y-13940000D03*
X25670000Y3810000D03*
%TO.N,Col2*%
X59355000Y-13940000D03*
X42695000Y-13910000D03*
X59700000Y2610000D03*
%TO.N,Col3*%
X59165000Y-47940000D03*
X79890000Y-14880000D03*
X98325000Y-14860000D03*
X98305000Y-47640000D03*
%TO.N,Col4*%
X115690000Y3810000D03*
X132235000Y-14030000D03*
X115265000Y-13990000D03*
%TO.N,Net-(B1--)*%
X162830000Y15890000D03*
X12270000Y15540000D03*
%TO.N,col5*%
X132165000Y-48030000D03*
X149700000Y-48040000D03*
X149650000Y6340000D03*
%TO.N,col6*%
X166680000Y8430000D03*
%TO.N,Row4*%
X100270000Y13840000D03*
X37570000Y-47100000D03*
X60360000Y-13960000D03*
X134910000Y-43740000D03*
X99230000Y-43740000D03*
X9400000Y-47170000D03*
X99230000Y-47000000D03*
X161460000Y-43760000D03*
X100300000Y-13990000D03*
%TO.N,Row5*%
X131100000Y11480000D03*
X134310000Y-60560000D03*
X9390000Y-61360000D03*
X26270000Y-61360000D03*
X150420000Y-60560000D03*
X99380000Y-60560000D03*
X61910000Y-26890000D03*
X134310000Y-26725000D03*
%TO.N,Net-(B1-+)*%
X71980000Y16150000D03*
X181960000Y13220000D03*
X117930000Y16130000D03*
X117920000Y13290000D03*
%TD*%
D22*
%TO.N,Bat*%
X182710000Y-5290000D02*
X182710000Y7450000D01*
X181960000Y-6040000D02*
X182710000Y-5290000D01*
%TO.N,Net-(D1-A)*%
X720000Y-8480000D02*
X-4125000Y-8480000D01*
X3300000Y-5900000D02*
X720000Y-8480000D01*
%TO.N,Row0*%
X60115000Y-42510000D02*
X61300000Y-41325000D01*
X95090000Y1220000D02*
X93915000Y45000D01*
X9315000Y-10485000D02*
X9330000Y-10500000D01*
X167395000Y-8500000D02*
X167395000Y-13695000D01*
X93915000Y-10325000D02*
X93880000Y-10360000D01*
X-7675000Y-10495000D02*
X-7680000Y-10500000D01*
X9315000Y-8520000D02*
X9315000Y-10485000D01*
X-7675000Y-8480000D02*
X-7675000Y-10495000D01*
X133540000Y-13730000D02*
X133540000Y-10800000D01*
X133540000Y-10800000D02*
X133510000Y-10770000D01*
X43645000Y-10375000D02*
X43645000Y-8440000D01*
X43540000Y-10480000D02*
X43645000Y-10375000D01*
X116215000Y-10755000D02*
X116215000Y-8450000D01*
X93915000Y45000D02*
X93915000Y-10325000D01*
X58060000Y-24800000D02*
X58060000Y-10360000D01*
X61300000Y-41325000D02*
X61300000Y-28040000D01*
X116230000Y-10770000D02*
X116215000Y-10755000D01*
X61300000Y-28040000D02*
X58060000Y-24800000D01*
X167395000Y-13695000D02*
X167320000Y-13770000D01*
%TO.N,Net-(D2-A)*%
X3300000Y-22900000D02*
X720000Y-25480000D01*
X720000Y-25480000D02*
X-4165000Y-25480000D01*
%TO.N,Row1*%
X116040000Y-27950000D02*
X116065000Y-27925000D01*
X9415000Y-27685000D02*
X9450000Y-27720000D01*
X167245000Y-25560000D02*
X167245000Y-27895000D01*
X43605000Y-27675000D02*
X43605000Y-25550000D01*
X95090000Y-3980000D02*
X95350000Y-4240000D01*
X131100000Y-27960000D02*
X131110000Y-27950000D01*
X131100000Y-57125000D02*
X131100000Y-27960000D01*
X133275000Y-62155000D02*
X133275000Y-59300000D01*
X60215000Y-59320000D02*
X60215000Y-61955000D01*
X60215000Y-61955000D02*
X60220000Y-61960000D01*
X133270000Y-62160000D02*
X133275000Y-62155000D01*
X133275000Y-59300000D02*
X131100000Y-57125000D01*
X43550000Y-27730000D02*
X43605000Y-27675000D01*
X95350000Y-4240000D02*
X95350000Y-27950000D01*
X-7715000Y-27675000D02*
X-7760000Y-27720000D01*
X116065000Y-27925000D02*
X116065000Y-25500000D01*
X9415000Y-25510000D02*
X9415000Y-27685000D01*
X-7715000Y-25480000D02*
X-7715000Y-27675000D01*
X95090000Y-1320000D02*
X95090000Y-3980000D01*
X167245000Y-27895000D02*
X167280000Y-27930000D01*
%TO.N,Net-(D3-A)*%
X3300000Y-39900000D02*
X710000Y-42490000D01*
X710000Y-42490000D02*
X-4125000Y-42490000D01*
%TO.N,Row2*%
X82480000Y-4166600D02*
X82480000Y-13080000D01*
X161450000Y-12900000D02*
X161375000Y-12825000D01*
X83634600Y-3012000D02*
X82480000Y-4166600D01*
X167205000Y-42490000D02*
X167205000Y-44355000D01*
X82480000Y-44540000D02*
X82430000Y-44590000D01*
X-7675000Y-44685000D02*
X-7640000Y-44720000D01*
X37475000Y-13065000D02*
X37460000Y-13080000D01*
X82480000Y-13080000D02*
X82480000Y-44540000D01*
X115830000Y-42515000D02*
X115825000Y-42510000D01*
X168310000Y-41385000D02*
X168310000Y-13150000D01*
X-7675000Y-42490000D02*
X-7675000Y-44685000D01*
X161375000Y-12825000D02*
X161375000Y-8470000D01*
X99280000Y-12440000D02*
X99275000Y-12435000D01*
X37475000Y-8430000D02*
X37475000Y-13065000D01*
X43555000Y-44575000D02*
X43555000Y-42580000D01*
X43570000Y-44590000D02*
X43555000Y-44575000D01*
X99275000Y-12435000D02*
X99275000Y-8470000D01*
X167205000Y-44355000D02*
X167230000Y-44380000D01*
X99280000Y-13050000D02*
X99280000Y-12440000D01*
X167205000Y-42490000D02*
X168310000Y-41385000D01*
X115830000Y-44470000D02*
X115830000Y-42515000D01*
%TO.N,Net-(D4-A)*%
X3300000Y-56900000D02*
X760000Y-59440000D01*
X760000Y-59440000D02*
X-3975000Y-59440000D01*
%TO.N,Row3*%
X151400000Y-28410000D02*
X151400000Y-40721462D01*
X-7525000Y-59440000D02*
X-7525000Y-60735000D01*
X81720000Y-59770000D02*
X81755000Y-59735000D01*
X81755000Y-59735000D02*
X81755000Y-3012000D01*
X99245000Y-27305000D02*
X99200000Y-27350000D01*
X152230000Y-47250000D02*
X151380000Y-48100000D01*
X150340000Y-27350000D02*
X150340000Y-25525000D01*
X116130000Y-61530000D02*
X116135000Y-61525000D01*
X26240000Y-27010000D02*
X26240000Y-25485000D01*
X116135000Y-61525000D02*
X116135000Y-59270000D01*
X150340000Y-25525000D02*
X150355000Y-25510000D01*
X150340000Y-27350000D02*
X151400000Y-28410000D01*
X152230000Y-41551462D02*
X152230000Y-47250000D01*
X99245000Y-25520000D02*
X99245000Y-27305000D01*
X151400000Y-40721462D02*
X152230000Y-41551462D01*
X-7525000Y-60735000D02*
X-7500000Y-60760000D01*
X26240000Y-25485000D02*
X26235000Y-25480000D01*
X43380000Y-60760000D02*
X43380000Y-59325000D01*
X43380000Y-59325000D02*
X43375000Y-59320000D01*
X151380000Y-48100000D02*
X151380000Y-61560000D01*
X166935000Y-59300000D02*
X166935000Y-61495000D01*
X81720000Y-60700000D02*
X81720000Y-59770000D01*
X166935000Y-61495000D02*
X166870000Y-61560000D01*
%TO.N,Net-(D5-A)*%
X17680000Y-8520000D02*
X12865000Y-8520000D01*
X20300000Y-5900000D02*
X17680000Y-8520000D01*
%TO.N,Net-(D6-A)*%
X20300000Y-22900000D02*
X17690000Y-25510000D01*
X17690000Y-25510000D02*
X12965000Y-25510000D01*
%TO.N,Net-(D7-A)*%
X37300000Y-5900000D02*
X39830000Y-8430000D01*
X39830000Y-8430000D02*
X41025000Y-8430000D01*
%TO.N,Net-(D8-A)*%
X37300000Y-22900000D02*
X34720000Y-25480000D01*
X34720000Y-25480000D02*
X29785000Y-25480000D01*
%TO.N,Net-(D9-A)*%
X54300000Y-5900000D02*
X51760000Y-8440000D01*
X51760000Y-8440000D02*
X47195000Y-8440000D01*
%TO.N,Net-(D10-A)*%
X51650000Y-25550000D02*
X47155000Y-25550000D01*
X54300000Y-22900000D02*
X51650000Y-25550000D01*
%TO.N,Net-(D11-A)*%
X54300000Y-39900000D02*
X51620000Y-42580000D01*
X51620000Y-42580000D02*
X47105000Y-42580000D01*
%TO.N,Net-(D12-A)*%
X54300000Y-56900000D02*
X51880000Y-59320000D01*
X51880000Y-59320000D02*
X46925000Y-59320000D01*
%TO.N,Net-(D13-A)*%
X71300000Y-39900000D02*
X68690000Y-42510000D01*
X68690000Y-42510000D02*
X63665000Y-42510000D01*
%TO.N,Net-(D14-A)*%
X71300000Y-56900000D02*
X68880000Y-59320000D01*
X68880000Y-59320000D02*
X63765000Y-59320000D01*
%TO.N,Net-(D15-A)*%
X110300000Y-5900000D02*
X107730000Y-8470000D01*
X107730000Y-8470000D02*
X102825000Y-8470000D01*
%TO.N,Net-(D16-A)*%
X110300000Y-22900000D02*
X107680000Y-25520000D01*
X107680000Y-25520000D02*
X102795000Y-25520000D01*
%TO.N,Net-(D17-A)*%
X124750000Y-8450000D02*
X119765000Y-8450000D01*
X127300000Y-5900000D02*
X124750000Y-8450000D01*
%TO.N,Net-(D18-A)*%
X124700000Y-25500000D02*
X119615000Y-25500000D01*
X127300000Y-22900000D02*
X124700000Y-25500000D01*
%TO.N,GND*%
X92965000Y-6345000D02*
X90930000Y-8380000D01*
X91915000Y8522000D02*
X92965000Y7472000D01*
X92965000Y7472000D02*
X92965000Y-6345000D01*
%TO.N,Net-(D21-A)*%
X144300000Y-39900000D02*
X141740000Y-42460000D01*
X141740000Y-42460000D02*
X136665000Y-42460000D01*
%TO.N,Net-(D22-A)*%
X144300000Y-56900000D02*
X141900000Y-59300000D01*
X141900000Y-59300000D02*
X136825000Y-59300000D01*
%TO.N,Net-(D23-A)*%
X163870000Y-8470000D02*
X164925000Y-8470000D01*
X161300000Y-5900000D02*
X163870000Y-8470000D01*
%TO.N,Net-(D24-A)*%
X161300000Y-22900000D02*
X158690000Y-25510000D01*
X158690000Y-25510000D02*
X153905000Y-25510000D01*
%TO.N,Net-(D25-A)*%
X175700000Y-8500000D02*
X170945000Y-8500000D01*
X178300000Y-5900000D02*
X175700000Y-8500000D01*
%TO.N,Net-(D19-A)*%
X124690000Y-42510000D02*
X119375000Y-42510000D01*
X127300000Y-39900000D02*
X124690000Y-42510000D01*
%TO.N,Col0*%
X-8300000Y6330000D02*
X-8300000Y-3700000D01*
X-8625000Y-47150000D02*
X-8625000Y-54375000D01*
X-8625000Y-38025000D02*
X-8625000Y-47150000D01*
X-8625000Y-54375000D02*
X-8300000Y-54700000D01*
X-8625000Y-20375000D02*
X-8300000Y-20700000D01*
X-8300000Y-3700000D02*
X-8625000Y-4025000D01*
X8700000Y-54700000D02*
X8455000Y-54455000D01*
X8455000Y-37945000D02*
X8700000Y-37700000D01*
X-8300000Y-37700000D02*
X-8625000Y-38025000D01*
X-8300000Y-20700000D02*
X-8665000Y-21065000D01*
X8455000Y-54455000D02*
X8455000Y-47180000D01*
X-8625000Y-4025000D02*
X-8625000Y-20375000D01*
X-8665000Y-21065000D02*
X-8665000Y-37335000D01*
X-8665000Y-37335000D02*
X-8300000Y-37700000D01*
X8455000Y-47180000D02*
X8455000Y-37945000D01*
%TO.N,Col1*%
X8700000Y-3700000D02*
X8365000Y-4035000D01*
X22650000Y-10265076D02*
X25700000Y-13315076D01*
X22650000Y-6750000D02*
X22650000Y-10265076D01*
X8365000Y-20365000D02*
X8700000Y-20700000D01*
X25670000Y3810000D02*
X25700000Y3780000D01*
X25700000Y3780000D02*
X25700000Y-3700000D01*
X25700000Y-47315076D02*
X25700000Y-54700000D01*
X25285000Y-21115000D02*
X25285000Y-37285000D01*
X25700000Y-3700000D02*
X22650000Y-6750000D01*
X25700000Y-20700000D02*
X25285000Y-21115000D01*
X25700000Y-37700000D02*
X22897467Y-40502533D01*
X25285000Y-37285000D02*
X25700000Y-37700000D01*
X25700000Y-13940000D02*
X25700000Y-20700000D01*
X22897467Y-44512543D02*
X25700000Y-47315076D01*
X8365000Y-13950000D02*
X8365000Y-20365000D01*
X25700000Y-13315076D02*
X25700000Y-13940000D01*
X8365000Y-4035000D02*
X8365000Y-13950000D01*
X22897467Y-40502533D02*
X22897467Y-44512543D01*
%TO.N,Col2*%
X59700000Y2610000D02*
X59700000Y-3700000D01*
X59355000Y-20355000D02*
X59700000Y-20700000D01*
X42695000Y-13910000D02*
X42695000Y-3705000D01*
X42695000Y-3705000D02*
X42700000Y-3700000D01*
X59355000Y-4045000D02*
X59355000Y-13940000D01*
X59700000Y-3700000D02*
X59355000Y-4045000D01*
X42655000Y-37655000D02*
X42655000Y-20745000D01*
X42700000Y-37700000D02*
X42655000Y-37655000D01*
X42655000Y-20745000D02*
X42700000Y-20700000D01*
X42605000Y-37795000D02*
X42700000Y-37700000D01*
X42605000Y-54605000D02*
X42605000Y-37795000D01*
X42695000Y-20695000D02*
X42695000Y-13910000D01*
X59355000Y-13940000D02*
X59355000Y-20355000D01*
X42700000Y-54700000D02*
X42605000Y-54605000D01*
X42700000Y-20700000D02*
X42695000Y-20695000D01*
%TO.N,Col3*%
X59165000Y-54165000D02*
X59700000Y-54700000D01*
X59165000Y-47940000D02*
X59165000Y-54165000D01*
X98305000Y-38095000D02*
X98700000Y-37700000D01*
X98700000Y-20700000D02*
X98325000Y-20325000D01*
X59700000Y-37700000D02*
X59165000Y-38235000D01*
X98295000Y-37295000D02*
X98295000Y-21105000D01*
X98700000Y-37700000D02*
X98295000Y-37295000D01*
X98700000Y-54700000D02*
X98305000Y-54305000D01*
X98325000Y-14860000D02*
X98325000Y-4075000D01*
X98305000Y-54305000D02*
X98305000Y-47640000D01*
X59165000Y-38235000D02*
X59165000Y-47940000D01*
X79850000Y-14840000D02*
X79890000Y-14880000D01*
X98295000Y-21105000D02*
X98700000Y-20700000D01*
X79850000Y-1320000D02*
X79850000Y-14840000D01*
X98305000Y-47640000D02*
X98305000Y-38095000D01*
X98325000Y-4075000D02*
X98700000Y-3700000D01*
X98325000Y-20325000D02*
X98325000Y-14860000D01*
%TO.N,Col4*%
X132235000Y-14030000D02*
X132235000Y-4165000D01*
X115700000Y3410000D02*
X115700000Y-3700000D01*
X115690000Y3420000D02*
X115700000Y3410000D01*
X132235000Y-20235000D02*
X132235000Y-14030000D01*
X115700000Y-37700000D02*
X115115000Y-37115000D01*
X114875000Y-38525000D02*
X114875000Y-53875000D01*
X115265000Y-13990000D02*
X115265000Y-20265000D01*
X115265000Y-20265000D02*
X115700000Y-20700000D01*
X115700000Y-37700000D02*
X114875000Y-38525000D01*
X132235000Y-4165000D02*
X132700000Y-3700000D01*
X115700000Y-3700000D02*
X115265000Y-4135000D01*
X115115000Y-37115000D02*
X115115000Y-21285000D01*
X115690000Y3810000D02*
X115690000Y3420000D01*
X115265000Y-4135000D02*
X115265000Y-13990000D01*
X132700000Y-20700000D02*
X132235000Y-20235000D01*
X114875000Y-53875000D02*
X115700000Y-54700000D01*
X115115000Y-21285000D02*
X115700000Y-20700000D01*
%TO.N,Net-(D20-A)*%
X127300000Y-56900000D02*
X124930000Y-59270000D01*
X124930000Y-59270000D02*
X119685000Y-59270000D01*
%TO.N,Net-(D26-A)*%
X175640000Y-25560000D02*
X170795000Y-25560000D01*
X178300000Y-22900000D02*
X175640000Y-25560000D01*
%TO.N,Net-(B1--)*%
X162720000Y15780000D02*
X162830000Y15890000D01*
X162720000Y9780000D02*
X162720000Y15780000D01*
X12270000Y15540000D02*
X12280000Y15530000D01*
X12280000Y15530000D02*
X12280000Y9560000D01*
%TO.N,Net-(D27-A)*%
X175710000Y-42490000D02*
X170755000Y-42490000D01*
X178300000Y-39900000D02*
X175710000Y-42490000D01*
%TO.N,RST*%
X84820000Y-2712475D02*
X84820000Y-7990000D01*
X84410000Y8620779D02*
X84410000Y-2302475D01*
X89350000Y12370000D02*
X89403656Y12316344D01*
X84679221Y8890000D02*
X84410000Y8620779D01*
X84820000Y-7990000D02*
X84430000Y-8380000D01*
X84410000Y-2302475D02*
X84820000Y-2712475D01*
X89403656Y10755419D02*
X87538237Y8890000D01*
X87538237Y8890000D02*
X84679221Y8890000D01*
X89403656Y12316344D02*
X89403656Y10755419D01*
%TO.N,Net-(D28-A)*%
X175900000Y-59300000D02*
X170485000Y-59300000D01*
X178300000Y-56900000D02*
X175900000Y-59300000D01*
%TO.N,Net-(D29-A)*%
X20300000Y-39900000D02*
X17710000Y-42490000D01*
X17710000Y-42490000D02*
X12955000Y-42490000D01*
%TO.N,Net-(D30-A)*%
X17900000Y-59300000D02*
X12945000Y-59300000D01*
X20300000Y-56900000D02*
X17900000Y-59300000D01*
%TO.N,Net-(D31-A)*%
X40010000Y-42610000D02*
X41105000Y-42610000D01*
X37300000Y-39900000D02*
X40010000Y-42610000D01*
%TO.N,Net-(D32-A)*%
X34900000Y-59300000D02*
X29835000Y-59300000D01*
X37300000Y-56900000D02*
X34900000Y-59300000D01*
%TO.N,Net-(D33-A)*%
X71300000Y-5900000D02*
X68650000Y-8550000D01*
X68650000Y-8550000D02*
X63855000Y-8550000D01*
%TO.N,Net-(D34-A)*%
X68660000Y-25540000D02*
X64075000Y-25540000D01*
X71300000Y-22900000D02*
X68660000Y-25540000D01*
%TO.N,Net-(D35-A)*%
X107710000Y-42490000D02*
X102805000Y-42490000D01*
X110300000Y-39900000D02*
X107710000Y-42490000D01*
%TO.N,Net-(D36-A)*%
X110300000Y-56900000D02*
X107870000Y-59330000D01*
X107870000Y-59330000D02*
X102955000Y-59330000D01*
%TO.N,col5*%
X149700000Y-48040000D02*
X149700000Y-54700000D01*
X149700000Y-37700000D02*
X146897467Y-40502533D01*
X149405000Y-37405000D02*
X149700000Y-37700000D01*
X132165000Y-38235000D02*
X132700000Y-37700000D01*
X132700000Y-54700000D02*
X132165000Y-54165000D01*
X146897467Y-10512543D02*
X149700000Y-13315076D01*
X149700000Y-13315076D02*
X149700000Y-20700000D01*
X149700000Y-20700000D02*
X149405000Y-20995000D01*
X149700000Y-3700000D02*
X146897467Y-6502533D01*
X149700000Y-47180000D02*
X149700000Y-48040000D01*
X146897467Y-44377467D02*
X149700000Y-47180000D01*
X149650000Y6340000D02*
X149700000Y6290000D01*
X146897467Y-40502533D02*
X146897467Y-44377467D01*
X132165000Y-54165000D02*
X132165000Y-48030000D01*
X149405000Y-20995000D02*
X149405000Y-37405000D01*
X132165000Y-48030000D02*
X132165000Y-38235000D01*
X149700000Y6290000D02*
X149700000Y-3700000D01*
X146897467Y-6502533D02*
X146897467Y-10512543D01*
%TO.N,col6*%
X166700000Y8410000D02*
X166700000Y-3700000D01*
X166700000Y-37700000D02*
X166295000Y-37295000D01*
X166255000Y-54255000D02*
X166255000Y-38145000D01*
X166680000Y8430000D02*
X166700000Y8410000D01*
X166295000Y-37295000D02*
X166295000Y-21105000D01*
X166700000Y-54700000D02*
X166255000Y-54255000D01*
X166255000Y-38145000D02*
X166700000Y-37700000D01*
X166445000Y-20445000D02*
X166445000Y-3955000D01*
X166295000Y-21105000D02*
X166700000Y-20700000D01*
X166445000Y-3955000D02*
X166700000Y-3700000D01*
X166700000Y-20700000D02*
X166445000Y-20445000D01*
%TO.N,Row4*%
X9405000Y-42490000D02*
X9405000Y-47165000D01*
X100300000Y-41445000D02*
X100300000Y-13990000D01*
X100300000Y13810000D02*
X100270000Y13840000D01*
X37570000Y-47100000D02*
X37570000Y-46670000D01*
X37570000Y-46670000D02*
X37555000Y-46655000D01*
X9405000Y-47165000D02*
X9400000Y-47170000D01*
X99255000Y-42490000D02*
X99255000Y-43715000D01*
X134300000Y-9615000D02*
X134300000Y-25110000D01*
X134300000Y-25110000D02*
X137600000Y-28410000D01*
X100300000Y-13990000D02*
X100300000Y13810000D01*
X161460000Y-42565000D02*
X161445000Y-42550000D01*
X60305000Y-8550000D02*
X60305000Y-13905000D01*
X161460000Y-43760000D02*
X161460000Y-42565000D01*
X134910000Y-42340000D02*
X134910000Y-43740000D01*
X99255000Y-42490000D02*
X100300000Y-41445000D01*
X137600000Y-39650000D02*
X134910000Y-42340000D01*
X137600000Y-28410000D02*
X137600000Y-39650000D01*
X99255000Y-43715000D02*
X99230000Y-43740000D01*
X37555000Y-46655000D02*
X37555000Y-42610000D01*
X99230000Y-47000000D02*
X99230000Y-43740000D01*
X133185000Y-8500000D02*
X134300000Y-9615000D01*
X60305000Y-13905000D02*
X60360000Y-13960000D01*
%TO.N,Row5*%
X134310000Y-26725000D02*
X134310000Y-60560000D01*
X150420000Y-59365000D02*
X150415000Y-59360000D01*
X99405000Y-60535000D02*
X99380000Y-60560000D01*
X133165000Y-25580000D02*
X131100000Y-23515000D01*
X9390000Y-60900000D02*
X9395000Y-60895000D01*
X131100000Y-23515000D02*
X131100000Y11480000D01*
X60525000Y-25540000D02*
X60560000Y-25540000D01*
X26285000Y-59300000D02*
X26285000Y-61345000D01*
X150420000Y-60560000D02*
X150420000Y-59365000D01*
X9395000Y-60895000D02*
X9395000Y-59300000D01*
X99405000Y-59330000D02*
X99405000Y-60535000D01*
X26285000Y-61345000D02*
X26270000Y-61360000D01*
X133165000Y-25580000D02*
X134310000Y-26725000D01*
X60560000Y-25540000D02*
X61910000Y-26890000D01*
X9390000Y-61360000D02*
X9390000Y-60900000D01*
%TO.N,Net-(B1-+)*%
X71950000Y16120000D02*
X71980000Y16150000D01*
X117920000Y13290000D02*
X117920000Y9780000D01*
X117930000Y16130000D02*
X117920000Y16120000D01*
X71950000Y12240000D02*
X71950000Y16120000D01*
X181960000Y13220000D02*
X181960000Y13190000D01*
X181960000Y-3540000D02*
X181960000Y13220000D01*
X117920000Y16120000D02*
X117920000Y13290000D01*
%TO.N,Net-(D37-A)*%
X141700000Y-8500000D02*
X136735000Y-8500000D01*
X144300000Y-5900000D02*
X141700000Y-8500000D01*
%TO.N,Net-(D38-A)*%
X141620000Y-25580000D02*
X136715000Y-25580000D01*
X144300000Y-22900000D02*
X141620000Y-25580000D01*
%TO.N,Net-(D39-A)*%
X163950000Y-42550000D02*
X164995000Y-42550000D01*
X161300000Y-39900000D02*
X163950000Y-42550000D01*
%TO.N,Net-(D40-A)*%
X161300000Y-56900000D02*
X158840000Y-59360000D01*
X158840000Y-59360000D02*
X153965000Y-59360000D01*
%TD*%
M02*
