  0
SECTION
  2
HEADER
  9
$ANGBASE
  50
0.0
  9
$ANGDIR
  70
1
  9
$MEASUREMENT
  70
1
  0
ENDSEC
  0
SECTION
  2
TABLES
  0
TABLE
  2
LTYPE
  70
4
  0
LTYPE
  5
40F
  2
CONTINUOUS
  70
0
  3
Solid line
  72
65
  73
0
  40
0.0
  0
LTYPE
  5
410
  2
DASHDOT
 70
0
  3
Dash Dot ____ _ ____ _
 72
65
 73
4
 40
2.0
 49
1.25
 49
-0.25
 49
0.25
 49
-0.25
  0
LTYPE
  5
411
  2
DASHED
 70
0
  3
Dashed __ __ __ __ __
 72
65
 73
2
 40
0.75
 49
0.5
 49
-0.25
  0
LTYPE
  5
43B
  2
DOTTED
 70
0
  3
Dotted .  .  .  .
 72
65
 73
2
 40
0.2
 49
0.0
 49
-0.2
  0
ENDTAB
  0
TABLE
  2
STYLE
  70
4
  0
STYLE
  2
KICAD
  70
0
  40
0
  41
1
  42
1
  50
0
  71
0
  3
isocp.shx
  0
STYLE
  2
KICADB
  70
0
  40
0
  41
1
  42
1
  50
0
  71
0
  3
isocp.shx
  0
STYLE
  2
KICADI
  70
0
  40
0
  41
1
  42
1
  50
15
  71
0
  3
isocp.shx
  0
STYLE
  2
KICADBI
  70
0
  40
0
  41
1
  42
1
  50
15
  71
0
  3
isocp.shx
  0
ENDTAB
  0
TABLE
  2
LAYER
  70
1
  0
LAYER
  2
BLACK
  70
0
  62
7
  6
CONTINUOUS
  0
ENDTAB
  0
ENDSEC
  0
SECTION
  2
ENTITIES
0
CIRCLE
8
BLACK
10
26.3149999999999977
20
85.039999999999992
40
2.5
0
LINE
8
BLACK
6
CONTINUOUS
10
-6.165
20
100.539999999999992
11
7.8249999999999993
21
100.539999999999992
0
LINE
8
BLACK
6
CONTINUOUS
10
7.8249999999999993
20
100.539999999999992
11
7.8249999999999993
21
86.5499999999999972
0
LINE
8
BLACK
6
CONTINUOUS
10
7.8249999999999993
20
86.5499999999999972
11
-6.165
21
86.5499999999999972
0
LINE
8
BLACK
6
CONTINUOUS
10
-6.165
20
86.5499999999999972
11
-6.165
21
100.539999999999992
0
LINE
8
BLACK
6
CONTINUOUS
10
-6.165
20
66.539999999999992
11
7.8249999999999993
21
66.539999999999992
0
LINE
8
BLACK
6
CONTINUOUS
10
7.8249999999999993
20
66.539999999999992
11
7.8249999999999993
21
52.5499999999999972
0
LINE
8
BLACK
6
CONTINUOUS
10
7.8249999999999993
20
52.5499999999999972
11
-6.165
21
52.5499999999999972
0
LINE
8
BLACK
6
CONTINUOUS
10
-6.165
20
52.5499999999999972
11
-6.165
21
66.539999999999992
0
LINE
8
BLACK
6
CONTINUOUS
10
61.8349999999999937
20
49.5399999999999991
11
75.8250000000000028
21
49.5399999999999991
0
LINE
8
BLACK
6
CONTINUOUS
10
75.8250000000000028
20
49.5399999999999991
11
75.8250000000000028
21
35.5499999999999972
0
LINE
8
BLACK
6
CONTINUOUS
10
75.8250000000000028
20
35.5499999999999972
11
61.8349999999999937
21
35.5499999999999972
0
LINE
8
BLACK
6
CONTINUOUS
10
61.8349999999999937
20
35.5499999999999972
11
61.8349999999999937
21
49.5399999999999991
0
CIRCLE
8
BLACK
10
150.3149999999999977
20
51.0399999999999991
40
2.5
0
LINE
8
BLACK
6
CONTINUOUS
10
100.8349999999999937
20
49.5399999999999991
11
114.8249999999999886
21
49.5399999999999991
0
LINE
8
BLACK
6
CONTINUOUS
10
114.8249999999999886
20
49.5399999999999991
11
114.8249999999999886
21
35.5499999999999972
0
LINE
8
BLACK
6
CONTINUOUS
10
114.8249999999999886
20
35.5499999999999972
11
100.8349999999999937
21
35.5499999999999972
0
LINE
8
BLACK
6
CONTINUOUS
10
100.8349999999999937
20
35.5499999999999972
11
100.8349999999999937
21
49.5399999999999991
0
LINE
8
BLACK
6
CONTINUOUS
10
61.8349999999999937
20
83.539999999999992
11
75.8250000000000028
21
83.539999999999992
0
LINE
8
BLACK
6
CONTINUOUS
10
75.8250000000000028
20
83.539999999999992
11
75.8250000000000028
21
69.5499999999999972
0
LINE
8
BLACK
6
CONTINUOUS
10
75.8250000000000028
20
69.5499999999999972
11
61.8349999999999937
21
69.5499999999999972
0
LINE
8
BLACK
6
CONTINUOUS
10
61.8349999999999937
20
69.5499999999999972
11
61.8349999999999937
21
83.539999999999992
0
LINE
8
BLACK
6
CONTINUOUS
10
117.8349999999999937
20
83.5499999999999972
11
131.8249999999999886
21
83.5499999999999972
0
LINE
8
BLACK
6
CONTINUOUS
10
131.8249999999999886
20
83.5499999999999972
11
131.8249999999999886
21
69.5600000000000023
0
LINE
8
BLACK
6
CONTINUOUS
10
131.8249999999999886
20
69.5600000000000023
11
117.8349999999999937
21
69.5600000000000023
0
LINE
8
BLACK
6
CONTINUOUS
10
117.8349999999999937
20
69.5600000000000023
11
117.8349999999999937
21
83.5499999999999972
0
LINE
8
BLACK
6
CONTINUOUS
10
-6.165
20
49.5399999999999991
11
7.8249999999999993
21
49.5399999999999991
0
LINE
8
BLACK
6
CONTINUOUS
10
7.8249999999999993
20
49.5399999999999991
11
7.8249999999999993
21
35.5499999999999972
0
LINE
8
BLACK
6
CONTINUOUS
10
7.8249999999999993
20
35.5499999999999972
11
-6.165
21
35.5499999999999972
0
LINE
8
BLACK
6
CONTINUOUS
10
-6.165
20
35.5499999999999972
11
-6.165
21
49.5399999999999991
0
LINE
8
BLACK
6
CONTINUOUS
10
168.8349999999999795
20
83.539999999999992
11
182.8249999999999886
21
83.539999999999992
0
LINE
8
BLACK
6
CONTINUOUS
10
182.8249999999999886
20
83.539999999999992
11
182.8249999999999886
21
69.5499999999999972
0
LINE
8
BLACK
6
CONTINUOUS
10
182.8249999999999886
20
69.5499999999999972
11
168.8349999999999795
21
69.5499999999999972
0
LINE
8
BLACK
6
CONTINUOUS
10
168.8349999999999795
20
69.5499999999999972
11
168.8349999999999795
21
83.539999999999992
0
LINE
8
BLACK
6
CONTINUOUS
10
181.6850000000000023
20
92.1099999999999994
11
185.2450000000000045
21
92.1099999999999994
0
LINE
8
BLACK
6
CONTINUOUS
10
185.2450000000000045
20
92.1099999999999994
11
185.2450000000000045
21
83.1299999999999955
0
LINE
8
BLACK
6
CONTINUOUS
10
185.2450000000000045
20
83.1299999999999955
11
181.6850000000000023
21
83.1299999999999955
0
LINE
8
BLACK
6
CONTINUOUS
10
181.6850000000000023
20
83.1299999999999955
11
181.6850000000000023
21
92.1099999999999994
0
LINE
8
BLACK
6
CONTINUOUS
10
117.8349999999999937
20
100.5499999999999972
11
131.8249999999999886
21
100.5499999999999972
0
LINE
8
BLACK
6
CONTINUOUS
10
131.8249999999999886
20
100.5499999999999972
11
131.8249999999999886
21
86.5600000000000023
0
LINE
8
BLACK
6
CONTINUOUS
10
131.8249999999999886
20
86.5600000000000023
11
117.8349999999999937
21
86.5600000000000023
0
LINE
8
BLACK
6
CONTINUOUS
10
117.8349999999999937
20
86.5600000000000023
11
117.8349999999999937
21
100.5499999999999972
0
LINE
8
BLACK
6
CONTINUOUS
10
27.8349999999999973
20
49.5499999999999972
11
41.8249999999999957
21
49.5499999999999972
0
LINE
8
BLACK
6
CONTINUOUS
10
41.8249999999999957
20
49.5499999999999972
11
41.8249999999999957
21
35.5599999999999952
0
LINE
8
BLACK
6
CONTINUOUS
10
41.8249999999999957
20
35.5599999999999952
11
27.8349999999999973
21
35.5599999999999952
0
LINE
8
BLACK
6
CONTINUOUS
10
27.8349999999999973
20
35.5599999999999952
11
27.8349999999999973
21
49.5499999999999972
0
LINE
8
BLACK
6
CONTINUOUS
10
100.8349999999999937
20
100.539999999999992
11
114.8249999999999886
21
100.539999999999992
0
LINE
8
BLACK
6
CONTINUOUS
10
114.8249999999999886
20
100.539999999999992
11
114.8249999999999886
21
86.5499999999999972
0
LINE
8
BLACK
6
CONTINUOUS
10
114.8249999999999886
20
86.5499999999999972
11
100.8349999999999937
21
86.5499999999999972
0
LINE
8
BLACK
6
CONTINUOUS
10
100.8349999999999937
20
86.5499999999999972
11
100.8349999999999937
21
100.539999999999992
0
LINE
8
BLACK
6
CONTINUOUS
10
10.8349999999999991
20
83.5499999999999972
11
24.8249999999999993
21
83.5499999999999972
0
LINE
8
BLACK
6
CONTINUOUS
10
24.8249999999999993
20
83.5499999999999972
11
24.8249999999999993
21
69.5600000000000023
0
LINE
8
BLACK
6
CONTINUOUS
10
24.8249999999999993
20
69.5600000000000023
11
10.8349999999999991
21
69.5600000000000023
0
LINE
8
BLACK
6
CONTINUOUS
10
10.8349999999999991
20
69.5600000000000023
11
10.8349999999999991
21
83.5499999999999972
0
LINE
8
BLACK
6
CONTINUOUS
10
83.9849999999999994
20
87.0699999999999932
11
92.9449999999999932
21
87.0699999999999932
0
LINE
8
BLACK
6
CONTINUOUS
10
92.9449999999999932
20
87.0699999999999932
11
92.9449999999999932
21
83.4899999999999949
0
LINE
8
BLACK
6
CONTINUOUS
10
92.9449999999999932
20
83.4899999999999949
11
83.9849999999999994
21
83.4899999999999949
0
LINE
8
BLACK
6
CONTINUOUS
10
83.9849999999999994
20
83.4899999999999949
11
83.9849999999999994
21
87.0699999999999932
0
LINE
8
BLACK
6
CONTINUOUS
10
10.8349999999999991
20
66.5499999999999972
11
24.8249999999999993
21
66.5499999999999972
0
LINE
8
BLACK
6
CONTINUOUS
10
24.8249999999999993
20
66.5499999999999972
11
24.8249999999999993
21
52.5599999999999952
0
LINE
8
BLACK
6
CONTINUOUS
10
24.8249999999999993
20
52.5599999999999952
11
10.8349999999999991
21
52.5599999999999952
0
LINE
8
BLACK
6
CONTINUOUS
10
10.8349999999999991
20
52.5599999999999952
11
10.8349999999999991
21
66.5499999999999972
0
LINE
8
BLACK
6
CONTINUOUS
10
27.8349999999999973
20
100.5499999999999972
11
41.8249999999999957
21
100.5499999999999972
0
LINE
8
BLACK
6
CONTINUOUS
10
41.8249999999999957
20
100.5499999999999972
11
41.8249999999999957
21
86.5600000000000023
0
LINE
8
BLACK
6
CONTINUOUS
10
41.8249999999999957
20
86.5600000000000023
11
27.8349999999999973
21
86.5600000000000023
0
LINE
8
BLACK
6
CONTINUOUS
10
27.8349999999999973
20
86.5600000000000023
11
27.8349999999999973
21
100.5499999999999972
0
LINE
8
BLACK
6
CONTINUOUS
10
117.8349999999999937
20
49.5499999999999972
11
131.8249999999999886
21
49.5499999999999972
0
LINE
8
BLACK
6
CONTINUOUS
10
131.8249999999999886
20
49.5499999999999972
11
131.8249999999999886
21
35.5599999999999952
0
LINE
8
BLACK
6
CONTINUOUS
10
131.8249999999999886
20
35.5599999999999952
11
117.8349999999999937
21
35.5599999999999952
0
LINE
8
BLACK
6
CONTINUOUS
10
117.8349999999999937
20
35.5599999999999952
11
117.8349999999999937
21
49.5499999999999972
0
LINE
8
BLACK
6
CONTINUOUS
10
151.8349999999999795
20
83.539999999999992
11
165.8249999999999886
21
83.539999999999992
0
LINE
8
BLACK
6
CONTINUOUS
10
165.8249999999999886
20
83.539999999999992
11
165.8249999999999886
21
69.5499999999999972
0
LINE
8
BLACK
6
CONTINUOUS
10
165.8249999999999886
20
69.5499999999999972
11
151.8349999999999795
21
69.5499999999999972
0
LINE
8
BLACK
6
CONTINUOUS
10
151.8349999999999795
20
69.5499999999999972
11
151.8349999999999795
21
83.539999999999992
0
LINE
8
BLACK
6
CONTINUOUS
10
44.8350000000000009
20
49.5399999999999991
11
58.8249999999999957
21
49.5399999999999991
0
LINE
8
BLACK
6
CONTINUOUS
10
58.8249999999999957
20
49.5399999999999991
11
58.8249999999999957
21
35.5499999999999972
0
LINE
8
BLACK
6
CONTINUOUS
10
58.8249999999999957
20
35.5499999999999972
11
44.8350000000000009
21
35.5499999999999972
0
LINE
8
BLACK
6
CONTINUOUS
10
44.8350000000000009
20
35.5499999999999972
11
44.8350000000000009
21
49.5399999999999991
0
LINE
8
BLACK
6
CONTINUOUS
10
44.8350000000000009
20
100.539999999999992
11
58.8249999999999957
21
100.539999999999992
0
LINE
8
BLACK
6
CONTINUOUS
10
58.8249999999999957
20
100.539999999999992
11
58.8249999999999957
21
86.5499999999999972
0
LINE
8
BLACK
6
CONTINUOUS
10
58.8249999999999957
20
86.5499999999999972
11
44.8350000000000009
21
86.5499999999999972
0
LINE
8
BLACK
6
CONTINUOUS
10
44.8350000000000009
20
86.5499999999999972
11
44.8350000000000009
21
100.539999999999992
0
LINE
8
BLACK
6
CONTINUOUS
10
168.8349999999999795
20
100.539999999999992
11
182.8249999999999886
21
100.539999999999992
0
LINE
8
BLACK
6
CONTINUOUS
10
182.8249999999999886
20
100.539999999999992
11
182.8249999999999886
21
86.5499999999999972
0
LINE
8
BLACK
6
CONTINUOUS
10
182.8249999999999886
20
86.5499999999999972
11
168.8349999999999795
21
86.5499999999999972
0
LINE
8
BLACK
6
CONTINUOUS
10
168.8349999999999795
20
86.5499999999999972
11
168.8349999999999795
21
100.539999999999992
0
CIRCLE
8
BLACK
10
150.3149999999999977
20
85.039999999999992
40
2.5
0
LINE
8
BLACK
6
CONTINUOUS
10
-6.165
20
83.539999999999992
11
7.8249999999999993
21
83.539999999999992
0
LINE
8
BLACK
6
CONTINUOUS
10
7.8249999999999993
20
83.539999999999992
11
7.8249999999999993
21
69.5499999999999972
0
LINE
8
BLACK
6
CONTINUOUS
10
7.8249999999999993
20
69.5499999999999972
11
-6.165
21
69.5499999999999972
0
LINE
8
BLACK
6
CONTINUOUS
10
-6.165
20
69.5499999999999972
11
-6.165
21
83.539999999999992
0
LINE
8
BLACK
6
CONTINUOUS
10
134.835000000000008
20
49.5499999999999972
11
148.8249999999999886
21
49.5499999999999972
0
LINE
8
BLACK
6
CONTINUOUS
10
148.8249999999999886
20
49.5499999999999972
11
148.8249999999999886
21
35.5599999999999952
0
LINE
8
BLACK
6
CONTINUOUS
10
148.8249999999999886
20
35.5599999999999952
11
134.835000000000008
21
35.5599999999999952
0
LINE
8
BLACK
6
CONTINUOUS
10
134.835000000000008
20
35.5599999999999952
11
134.835000000000008
21
49.5499999999999972
0
LINE
8
BLACK
6
CONTINUOUS
10
27.8349999999999973
20
83.5499999999999972
11
41.8249999999999957
21
83.5499999999999972
0
LINE
8
BLACK
6
CONTINUOUS
10
41.8249999999999957
20
83.5499999999999972
11
41.8249999999999957
21
69.5600000000000023
0
LINE
8
BLACK
6
CONTINUOUS
10
41.8249999999999957
20
69.5600000000000023
11
27.8349999999999973
21
69.5600000000000023
0
LINE
8
BLACK
6
CONTINUOUS
10
27.8349999999999973
20
69.5600000000000023
11
27.8349999999999973
21
83.5499999999999972
0
LINE
8
BLACK
6
CONTINUOUS
10
134.835000000000008
20
83.5499999999999972
11
148.8249999999999886
21
83.5499999999999972
0
LINE
8
BLACK
6
CONTINUOUS
10
148.8249999999999886
20
83.5499999999999972
11
148.8249999999999886
21
69.5600000000000023
0
LINE
8
BLACK
6
CONTINUOUS
10
148.8249999999999886
20
69.5600000000000023
11
134.835000000000008
21
69.5600000000000023
0
LINE
8
BLACK
6
CONTINUOUS
10
134.835000000000008
20
69.5600000000000023
11
134.835000000000008
21
83.5499999999999972
0
LINE
8
BLACK
6
CONTINUOUS
10
61.8349999999999937
20
66.539999999999992
11
75.8250000000000028
21
66.539999999999992
0
LINE
8
BLACK
6
CONTINUOUS
10
75.8250000000000028
20
66.539999999999992
11
75.8250000000000028
21
52.5499999999999972
0
LINE
8
BLACK
6
CONTINUOUS
10
75.8250000000000028
20
52.5499999999999972
11
61.8349999999999937
21
52.5499999999999972
0
LINE
8
BLACK
6
CONTINUOUS
10
61.8349999999999937
20
52.5499999999999972
11
61.8349999999999937
21
66.539999999999992
0
LINE
8
BLACK
6
CONTINUOUS
10
10.8349999999999991
20
100.5499999999999972
11
24.8249999999999993
21
100.5499999999999972
0
LINE
8
BLACK
6
CONTINUOUS
10
24.8249999999999993
20
100.5499999999999972
11
24.8249999999999993
21
86.5600000000000023
0
LINE
8
BLACK
6
CONTINUOUS
10
24.8249999999999993
20
86.5600000000000023
11
10.8349999999999991
21
86.5600000000000023
0
LINE
8
BLACK
6
CONTINUOUS
10
10.8349999999999991
20
86.5600000000000023
11
10.8349999999999991
21
100.5499999999999972
0
LINE
8
BLACK
6
CONTINUOUS
10
134.835000000000008
20
66.5499999999999972
11
148.8249999999999886
21
66.5499999999999972
0
LINE
8
BLACK
6
CONTINUOUS
10
148.8249999999999886
20
66.5499999999999972
11
148.8249999999999886
21
52.5599999999999952
0
LINE
8
BLACK
6
CONTINUOUS
10
148.8249999999999886
20
52.5599999999999952
11
134.835000000000008
21
52.5599999999999952
0
LINE
8
BLACK
6
CONTINUOUS
10
134.835000000000008
20
52.5599999999999952
11
134.835000000000008
21
66.5499999999999972
0
LINE
8
BLACK
6
CONTINUOUS
10
10.8349999999999991
20
49.5499999999999972
11
24.8249999999999993
21
49.5499999999999972
0
LINE
8
BLACK
6
CONTINUOUS
10
24.8249999999999993
20
49.5499999999999972
11
24.8249999999999993
21
35.5599999999999952
0
LINE
8
BLACK
6
CONTINUOUS
10
24.8249999999999993
20
35.5599999999999952
11
10.8349999999999991
21
35.5599999999999952
0
LINE
8
BLACK
6
CONTINUOUS
10
10.8349999999999991
20
35.5599999999999952
11
10.8349999999999991
21
49.5499999999999972
0
LINE
8
BLACK
6
CONTINUOUS
10
61.8349999999999937
20
100.539999999999992
11
75.8250000000000028
21
100.539999999999992
0
LINE
8
BLACK
6
CONTINUOUS
10
75.8250000000000028
20
100.539999999999992
11
75.8250000000000028
21
86.5499999999999972
0
LINE
8
BLACK
6
CONTINUOUS
10
75.8250000000000028
20
86.5499999999999972
11
61.8349999999999937
21
86.5499999999999972
0
LINE
8
BLACK
6
CONTINUOUS
10
61.8349999999999937
20
86.5499999999999972
11
61.8349999999999937
21
100.539999999999992
0
LINE
8
BLACK
6
CONTINUOUS
10
151.8349999999999795
20
100.539999999999992
11
165.8249999999999886
21
100.539999999999992
0
LINE
8
BLACK
6
CONTINUOUS
10
165.8249999999999886
20
100.539999999999992
11
165.8249999999999886
21
86.5499999999999972
0
LINE
8
BLACK
6
CONTINUOUS
10
165.8249999999999886
20
86.5499999999999972
11
151.8349999999999795
21
86.5499999999999972
0
LINE
8
BLACK
6
CONTINUOUS
10
151.8349999999999795
20
86.5499999999999972
11
151.8349999999999795
21
100.539999999999992
0
LINE
8
BLACK
6
CONTINUOUS
10
117.8349999999999937
20
66.5499999999999972
11
131.8249999999999886
21
66.5499999999999972
0
LINE
8
BLACK
6
CONTINUOUS
10
131.8249999999999886
20
66.5499999999999972
11
131.8249999999999886
21
52.5599999999999952
0
LINE
8
BLACK
6
CONTINUOUS
10
131.8249999999999886
20
52.5599999999999952
11
117.8349999999999937
21
52.5599999999999952
0
LINE
8
BLACK
6
CONTINUOUS
10
117.8349999999999937
20
52.5599999999999952
11
117.8349999999999937
21
66.5499999999999972
0
LINE
8
BLACK
6
CONTINUOUS
10
100.8349999999999937
20
66.539999999999992
11
114.8249999999999886
21
66.539999999999992
0
LINE
8
BLACK
6
CONTINUOUS
10
114.8249999999999886
20
66.539999999999992
11
114.8249999999999886
21
52.5499999999999972
0
LINE
8
BLACK
6
CONTINUOUS
10
114.8249999999999886
20
52.5499999999999972
11
100.8349999999999937
21
52.5499999999999972
0
LINE
8
BLACK
6
CONTINUOUS
10
100.8349999999999937
20
52.5499999999999972
11
100.8349999999999937
21
66.539999999999992
0
LINE
8
BLACK
6
CONTINUOUS
10
78.4949999999999903
20
110.
11
98.0549999999999926
21
110.
0
LINE
8
BLACK
6
CONTINUOUS
10
98.0549999999999926
20
110.
11
98.0549999999999926
21
88.5799999999999983
0
LINE
8
BLACK
6
CONTINUOUS
10
98.0549999999999926
20
88.5799999999999983
11
78.4949999999999903
21
88.5799999999999983
0
LINE
8
BLACK
6
CONTINUOUS
10
78.4949999999999903
20
88.5799999999999983
11
78.4949999999999903
21
110.
0
CIRCLE
8
BLACK
10
26.3149999999999977
20
51.0399999999999991
40
2.5
0
LINE
8
BLACK
6
CONTINUOUS
10
151.8349999999999795
20
66.539999999999992
11
165.8249999999999886
21
66.539999999999992
0
LINE
8
BLACK
6
CONTINUOUS
10
165.8249999999999886
20
66.539999999999992
11
165.8249999999999886
21
52.5499999999999972
0
LINE
8
BLACK
6
CONTINUOUS
10
165.8249999999999886
20
52.5499999999999972
11
151.8349999999999795
21
52.5499999999999972
0
LINE
8
BLACK
6
CONTINUOUS
10
151.8349999999999795
20
52.5499999999999972
11
151.8349999999999795
21
66.539999999999992
0
LINE
8
BLACK
6
CONTINUOUS
10
44.8350000000000009
20
66.539999999999992
11
58.8249999999999957
21
66.539999999999992
0
LINE
8
BLACK
6
CONTINUOUS
10
58.8249999999999957
20
66.539999999999992
11
58.8249999999999957
21
52.5499999999999972
0
LINE
8
BLACK
6
CONTINUOUS
10
58.8249999999999957
20
52.5499999999999972
11
44.8350000000000009
21
52.5499999999999972
0
LINE
8
BLACK
6
CONTINUOUS
10
44.8350000000000009
20
52.5499999999999972
11
44.8350000000000009
21
66.539999999999992
0
LINE
8
BLACK
6
CONTINUOUS
10
134.835000000000008
20
100.5499999999999972
11
148.8249999999999886
21
100.5499999999999972
0
LINE
8
BLACK
6
CONTINUOUS
10
148.8249999999999886
20
100.5499999999999972
11
148.8249999999999886
21
86.5600000000000023
0
LINE
8
BLACK
6
CONTINUOUS
10
148.8249999999999886
20
86.5600000000000023
11
134.835000000000008
21
86.5600000000000023
0
LINE
8
BLACK
6
CONTINUOUS
10
134.835000000000008
20
86.5600000000000023
11
134.835000000000008
21
100.5499999999999972
0
LINE
8
BLACK
6
CONTINUOUS
10
71.144999999999996
20
107.5999999999999943
11
76.8049999999999926
21
107.5999999999999943
0
LINE
8
BLACK
6
CONTINUOUS
10
76.8049999999999926
20
107.5999999999999943
11
76.8049999999999926
21
104.019999999999996
0
LINE
8
BLACK
6
CONTINUOUS
10
76.8049999999999926
20
104.019999999999996
11
71.144999999999996
21
104.019999999999996
0
LINE
8
BLACK
6
CONTINUOUS
10
71.144999999999996
20
104.019999999999996
11
71.144999999999996
21
107.5999999999999943
0
LINE
8
BLACK
6
CONTINUOUS
10
27.8349999999999973
20
66.5499999999999972
11
41.8249999999999957
21
66.5499999999999972
0
LINE
8
BLACK
6
CONTINUOUS
10
41.8249999999999957
20
66.5499999999999972
11
41.8249999999999957
21
52.5599999999999952
0
LINE
8
BLACK
6
CONTINUOUS
10
41.8249999999999957
20
52.5599999999999952
11
27.8349999999999973
21
52.5599999999999952
0
LINE
8
BLACK
6
CONTINUOUS
10
27.8349999999999973
20
52.5599999999999952
11
27.8349999999999973
21
66.5499999999999972
0
LINE
8
BLACK
6
CONTINUOUS
10
168.8349999999999795
20
49.5399999999999991
11
182.8249999999999886
21
49.5399999999999991
0
LINE
8
BLACK
6
CONTINUOUS
10
182.8249999999999886
20
49.5399999999999991
11
182.8249999999999886
21
35.5499999999999972
0
LINE
8
BLACK
6
CONTINUOUS
10
182.8249999999999886
20
35.5499999999999972
11
168.8349999999999795
21
35.5499999999999972
0
LINE
8
BLACK
6
CONTINUOUS
10
168.8349999999999795
20
35.5499999999999972
11
168.8349999999999795
21
49.5399999999999991
0
LINE
8
BLACK
6
CONTINUOUS
10
100.8349999999999937
20
83.539999999999992
11
114.8249999999999886
21
83.539999999999992
0
LINE
8
BLACK
6
CONTINUOUS
10
114.8249999999999886
20
83.539999999999992
11
114.8249999999999886
21
69.5499999999999972
0
LINE
8
BLACK
6
CONTINUOUS
10
114.8249999999999886
20
69.5499999999999972
11
100.8349999999999937
21
69.5499999999999972
0
LINE
8
BLACK
6
CONTINUOUS
10
100.8349999999999937
20
69.5499999999999972
11
100.8349999999999937
21
83.539999999999992
0
LINE
8
BLACK
6
CONTINUOUS
10
151.8349999999999795
20
49.5399999999999991
11
165.8249999999999886
21
49.5399999999999991
0
LINE
8
BLACK
6
CONTINUOUS
10
165.8249999999999886
20
49.5399999999999991
11
165.8249999999999886
21
35.5499999999999972
0
LINE
8
BLACK
6
CONTINUOUS
10
165.8249999999999886
20
35.5499999999999972
11
151.8349999999999795
21
35.5499999999999972
0
LINE
8
BLACK
6
CONTINUOUS
10
151.8349999999999795
20
35.5499999999999972
11
151.8349999999999795
21
49.5399999999999991
0
LINE
8
BLACK
6
CONTINUOUS
10
-8.754999999999999
20
110.3499999999999943
11
185.3449999999999989
21
110.3499999999999943
0
LINE
8
BLACK
6
CONTINUOUS
10
185.3449999999999989
20
110.3499999999999943
11
185.3449999999999989
21
30.639999999999997
0
LINE
8
BLACK
6
CONTINUOUS
10
185.3449999999999989
20
30.639999999999997
11
-8.754999999999999
21
30.639999999999997
0
LINE
8
BLACK
6
CONTINUOUS
10
-8.754999999999999
20
30.639999999999997
11
-8.754999999999999
21
110.3499999999999943
0
LINE
8
BLACK
6
CONTINUOUS
10
168.8349999999999795
20
66.539999999999992
11
182.8249999999999886
21
66.539999999999992
0
LINE
8
BLACK
6
CONTINUOUS
10
182.8249999999999886
20
66.539999999999992
11
182.8249999999999886
21
52.5499999999999972
0
LINE
8
BLACK
6
CONTINUOUS
10
182.8249999999999886
20
52.5499999999999972
11
168.8349999999999795
21
52.5499999999999972
0
LINE
8
BLACK
6
CONTINUOUS
10
168.8349999999999795
20
52.5499999999999972
11
168.8349999999999795
21
66.539999999999992
0
LINE
8
BLACK
6
CONTINUOUS
10
44.8350000000000009
20
83.539999999999992
11
58.8249999999999957
21
83.539999999999992
0
LINE
8
BLACK
6
CONTINUOUS
10
58.8249999999999957
20
83.539999999999992
11
58.8249999999999957
21
69.5499999999999972
0
LINE
8
BLACK
6
CONTINUOUS
10
58.8249999999999957
20
69.5499999999999972
11
44.8350000000000009
21
69.5499999999999972
0
LINE
8
BLACK
6
CONTINUOUS
10
44.8350000000000009
20
69.5499999999999972
11
44.8350000000000009
21
83.539999999999992
  0
ENDSEC
  0
EOF
